SplineFontDB: 3.2
FontName: 7x17medium
FullName: 7x17 medium
FamilyName: 7x17
Weight: Book
Copyright: Copyright (c) 2023, Darren S. Embry
UComments: "2023-3-7: Created with FontForge (http://fontforge.org)"
Version: 001.000
ItalicAngle: 0
UnderlinePosition: -100
UnderlineWidth: 50
Ascent: 824
Descent: 176
InvalidEm: 0
LayerCount: 2
Layer: 0 0 "Back" 1
Layer: 1 0 "Fore" 0
XUID: [1021 865 -149743877 4919854]
StyleMap: 0x0040
FSType: 0
OS2Version: 0
OS2_WeightWidthSlopeOnly: 0
OS2_UseTypoMetrics: 1
CreationTime: 1678226834
ModificationTime: 1678226834
PfmFamily: 48
TTFWeight: 400
TTFWidth: 5
LineGap: 0
VLineGap: 0
Panose: 2 0 6 9 0 0 0 0 0 0
OS2TypoAscent: 824
OS2TypoAOffset: 0
OS2TypoDescent: -176
OS2TypoDOffset: 0
OS2TypoLinegap: 0
OS2WinAscent: 824
OS2WinAOffset: 0
OS2WinDescent: 176
OS2WinDOffset: 0
HheadAscent: 824
HheadAOffset: 0
HheadDescent: -176
HheadDOffset: 0
OS2SubXSize: 650
OS2SubYSize: 700
OS2SubXOff: 0
OS2SubYOff: 140
OS2SupXSize: 650
OS2SupYSize: 700
OS2SupXOff: 0
OS2SupYOff: 480
OS2StrikeYSize: 49
OS2StrikeYPos: 258
OS2Vendor: 'PfEd'
MacStyle: 0
DEI: 91125
Encoding: UnicodeBmp
UnicodeInterp: none
NameList: AGL For New Fonts
DisplaySize: 17
AntiAlias: 1
FitToEm: 0
BeginChars: 65536 65

StartChar: exclam
Encoding: 33 33 1
Width: 412
Flags: HW
LayerCount: 2
Back
Fore
SplineSet
176 588 m 1
 176 647 l 1
 235 647 l 1
 235 588 l 1
 176 588 l 1
176 529 m 1
 176 588 l 1
 235 588 l 1
 235 529 l 1
 176 529 l 1
176 471 m 1
 176 529 l 1
 235 529 l 1
 235 471 l 1
 176 471 l 1
176 412 m 1
 176 471 l 1
 235 471 l 1
 235 412 l 1
 176 412 l 1
176 353 m 1
 176 412 l 1
 235 412 l 1
 235 353 l 1
 176 353 l 1
176 294 m 1
 176 353 l 1
 235 353 l 1
 235 294 l 1
 176 294 l 1
176 235 m 1
 176 294 l 1
 235 294 l 1
 235 235 l 1
 176 235 l 1
176 59 m 1
 176 118 l 1
 235 118 l 1
 235 59 l 1
 176 59 l 1
176 0 m 1
 176 59 l 1
 235 59 l 1
 235 0 l 1
 176 0 l 1
EndSplineSet
EndChar

StartChar: quotedbl
Encoding: 34 34 2
Width: 412
Flags: HW
LayerCount: 2
Back
Fore
SplineSet
118 647 m 1
 118 706 l 1
 176 706 l 1
 176 647 l 1
 118 647 l 1
235 647 m 1
 235 706 l 1
 294 706 l 1
 294 647 l 1
 235 647 l 1
118 588 m 1
 118 647 l 1
 176 647 l 1
 176 588 l 1
 118 588 l 1
235 588 m 1
 235 647 l 1
 294 647 l 1
 294 588 l 1
 235 588 l 1
118 529 m 1
 118 588 l 1
 176 588 l 1
 176 529 l 1
 118 529 l 1
235 529 m 1
 235 588 l 1
 294 588 l 1
 294 529 l 1
 235 529 l 1
118 471 m 1
 118 529 l 1
 176 529 l 1
 176 471 l 1
 118 471 l 1
235 471 m 1
 235 529 l 1
 294 529 l 1
 294 471 l 1
 235 471 l 1
EndSplineSet
EndChar

StartChar: numbersign
Encoding: 35 35 3
Width: 412
Flags: HW
LayerCount: 2
Back
Fore
SplineSet
118 529 m 1
 118 588 l 1
 176 588 l 1
 176 529 l 1
 118 529 l 1
235 529 m 1
 235 588 l 1
 294 588 l 1
 294 529 l 1
 235 529 l 1
118 471 m 1
 118 529 l 1
 176 529 l 1
 176 471 l 1
 118 471 l 1
235 471 m 1
 235 529 l 1
 294 529 l 1
 294 471 l 1
 235 471 l 1
118 412 m 1
 118 471 l 1
 176 471 l 1
 176 412 l 1
 118 412 l 1
235 412 m 1
 235 471 l 1
 294 471 l 1
 294 412 l 1
 235 412 l 1
59 353 m 1
 59 412 l 1
 353 412 l 1
 353 353 l 1
 59 353 l 1
118 294 m 1
 118 353 l 1
 176 353 l 1
 176 294 l 1
 118 294 l 1
235 294 m 1
 235 353 l 1
 294 353 l 1
 294 294 l 1
 235 294 l 1
118 235 m 1
 118 294 l 1
 176 294 l 1
 176 235 l 1
 118 235 l 1
235 235 m 1
 235 294 l 1
 294 294 l 1
 294 235 l 1
 235 235 l 1
59 176 m 1
 59 235 l 1
 353 235 l 1
 353 176 l 1
 59 176 l 1
118 118 m 1
 118 176 l 1
 176 176 l 1
 176 118 l 1
 118 118 l 1
235 118 m 1
 235 176 l 1
 294 176 l 1
 294 118 l 1
 235 118 l 1
118 59 m 1
 118 118 l 1
 176 118 l 1
 176 59 l 1
 118 59 l 1
235 59 m 1
 235 118 l 1
 294 118 l 1
 294 59 l 1
 235 59 l 1
118 0 m 1
 118 59 l 1
 176 59 l 1
 176 0 l 1
 118 0 l 1
235 0 m 1
 235 59 l 1
 294 59 l 1
 294 0 l 1
 235 0 l 1
EndSplineSet
EndChar

StartChar: dollar
Encoding: 36 36 4
Width: 412
Flags: HW
LayerCount: 2
Back
Fore
SplineSet
176 647 m 1
 176 706 l 1
 235 706 l 1
 235 647 l 1
 176 647 l 1
176 588 m 1
 176 647 l 1
 235 647 l 1
 235 588 l 1
 176 588 l 1
118 529 m 1
 118 588 l 1
 353 588 l 1
 353 529 l 1
 118 529 l 1
59 471 m 1
 59 529 l 1
 118 529 l 1
 118 471 l 1
 59 471 l 1
176 471 m 1
 176 529 l 1
 235 529 l 1
 235 471 l 1
 176 471 l 1
59 412 m 1
 59 471 l 1
 118 471 l 1
 118 412 l 1
 59 412 l 1
176 412 m 1
 176 471 l 1
 235 471 l 1
 235 412 l 1
 176 412 l 1
59 353 m 1
 59 412 l 1
 118 412 l 1
 118 353 l 1
 59 353 l 1
176 353 m 1
 176 412 l 1
 235 412 l 1
 235 353 l 1
 176 353 l 1
118 294 m 1
 118 353 l 1
 294 353 l 1
 294 294 l 1
 118 294 l 1
176 235 m 1
 176 294 l 1
 235 294 l 1
 235 235 l 1
 176 235 l 1
294 235 m 1
 294 294 l 1
 353 294 l 1
 353 235 l 1
 294 235 l 1
176 176 m 1
 176 235 l 1
 235 235 l 1
 235 176 l 1
 176 176 l 1
294 176 m 1
 294 235 l 1
 353 235 l 1
 353 176 l 1
 294 176 l 1
176 118 m 1
 176 176 l 1
 235 176 l 1
 235 118 l 1
 176 118 l 1
294 118 m 1
 294 176 l 1
 353 176 l 1
 353 118 l 1
 294 118 l 1
59 59 m 1
 59 118 l 1
 294 118 l 1
 294 59 l 1
 59 59 l 1
176 0 m 1
 176 59 l 1
 235 59 l 1
 235 0 l 1
 176 0 l 1
176 -59 m 1
 176 0 l 1
 235 0 l 1
 235 -59 l 1
 176 -59 l 1
EndSplineSet
EndChar

StartChar: percent
Encoding: 37 37 5
Width: 412
Flags: HW
LayerCount: 2
Back
Fore
SplineSet
118 588 m 1
 118 647 l 1
 176 647 l 1
 176 588 l 1
 118 588 l 1
59 529 m 1
 59 588 l 1
 118 588 l 1
 118 529 l 1
 59 529 l 1
176 529 m 1
 176 588 l 1
 235 588 l 1
 235 529 l 1
 176 529 l 1
118 471 m 1
 118 529 l 1
 176 529 l 1
 176 471 l 1
 118 471 l 1
294 471 m 1
 294 529 l 1
 353 529 l 1
 353 471 l 1
 294 471 l 1
235 412 m 1
 235 471 l 1
 294 471 l 1
 294 412 l 1
 235 412 l 1
235 353 m 1
 235 412 l 1
 294 412 l 1
 294 353 l 1
 235 353 l 1
176 294 m 1
 176 353 l 1
 235 353 l 1
 235 294 l 1
 176 294 l 1
118 235 m 1
 118 294 l 1
 176 294 l 1
 176 235 l 1
 118 235 l 1
118 176 m 1
 118 235 l 1
 176 235 l 1
 176 176 l 1
 118 176 l 1
59 118 m 1
 59 176 l 1
 118 176 l 1
 118 118 l 1
 59 118 l 1
235 118 m 1
 235 176 l 1
 294 176 l 1
 294 118 l 1
 235 118 l 1
176 59 m 1
 176 118 l 1
 235 118 l 1
 235 59 l 1
 176 59 l 1
294 59 m 1
 294 118 l 1
 353 118 l 1
 353 59 l 1
 294 59 l 1
235 0 m 1
 235 59 l 1
 294 59 l 1
 294 0 l 1
 235 0 l 1
EndSplineSet
EndChar

StartChar: ampersand
Encoding: 38 38 6
Width: 412
Flags: HW
LayerCount: 2
Back
Fore
SplineSet
118 588 m 1
 118 647 l 1
 176 647 l 1
 176 588 l 1
 118 588 l 1
59 529 m 1
 59 588 l 1
 118 588 l 1
 118 529 l 1
 59 529 l 1
176 529 m 1
 176 588 l 1
 235 588 l 1
 235 529 l 1
 176 529 l 1
59 471 m 1
 59 529 l 1
 118 529 l 1
 118 471 l 1
 59 471 l 1
176 471 m 1
 176 529 l 1
 235 529 l 1
 235 471 l 1
 176 471 l 1
118 412 m 1
 118 471 l 1
 176 471 l 1
 176 412 l 1
 118 412 l 1
118 353 m 1
 118 412 l 1
 176 412 l 1
 176 353 l 1
 118 353 l 1
59 294 m 1
 59 353 l 1
 118 353 l 1
 118 294 l 1
 59 294 l 1
176 294 m 1
 176 353 l 1
 235 353 l 1
 235 294 l 1
 176 294 l 1
294 294 m 1
 294 353 l 1
 353 353 l 1
 353 294 l 1
 294 294 l 1
59 235 m 1
 59 294 l 1
 118 294 l 1
 118 235 l 1
 59 235 l 1
176 235 m 1
 176 294 l 1
 235 294 l 1
 235 235 l 1
 176 235 l 1
294 235 m 1
 294 294 l 1
 353 294 l 1
 353 235 l 1
 294 235 l 1
59 176 m 1
 59 235 l 1
 118 235 l 1
 118 176 l 1
 59 176 l 1
235 176 m 1
 235 235 l 1
 294 235 l 1
 294 176 l 1
 235 176 l 1
59 118 m 1
 59 176 l 1
 118 176 l 1
 118 118 l 1
 59 118 l 1
235 118 m 1
 235 176 l 1
 294 176 l 1
 294 118 l 1
 235 118 l 1
59 59 m 1
 59 118 l 1
 118 118 l 1
 118 59 l 1
 59 59 l 1
235 59 m 1
 235 118 l 1
 353 118 l 1
 353 59 l 1
 235 59 l 1
118 0 m 1
 118 59 l 1
 235 59 l 1
 235 0 l 1
 118 0 l 1
294 0 m 1
 294 59 l 1
 353 59 l 1
 353 0 l 1
 294 0 l 1
EndSplineSet
EndChar

StartChar: quotesingle
Encoding: 39 39 7
Width: 412
Flags: HW
LayerCount: 2
Back
Fore
SplineSet
176 588 m 1
 176 647 l 1
 235 647 l 1
 235 588 l 1
 176 588 l 1
176 529 m 1
 176 588 l 1
 235 588 l 1
 235 529 l 1
 176 529 l 1
176 471 m 1
 176 529 l 1
 235 529 l 1
 235 471 l 1
 176 471 l 1
176 412 m 1
 176 471 l 1
 235 471 l 1
 235 412 l 1
 176 412 l 1
EndSplineSet
EndChar

StartChar: parenleft
Encoding: 40 40 8
Width: 412
Flags: HW
LayerCount: 2
Back
Fore
SplineSet
176 588 m 1
 176 647 l 1
 235 647 l 1
 235 588 l 1
 176 588 l 1
118 529 m 1
 118 588 l 1
 176 588 l 1
 176 529 l 1
 118 529 l 1
118 471 m 1
 118 529 l 1
 176 529 l 1
 176 471 l 1
 118 471 l 1
59 412 m 1
 59 471 l 1
 118 471 l 1
 118 412 l 1
 59 412 l 1
59 353 m 1
 59 412 l 1
 118 412 l 1
 118 353 l 1
 59 353 l 1
59 294 m 1
 59 353 l 1
 118 353 l 1
 118 294 l 1
 59 294 l 1
59 235 m 1
 59 294 l 1
 118 294 l 1
 118 235 l 1
 59 235 l 1
59 176 m 1
 59 235 l 1
 118 235 l 1
 118 176 l 1
 59 176 l 1
118 118 m 1
 118 176 l 1
 176 176 l 1
 176 118 l 1
 118 118 l 1
118 59 m 1
 118 118 l 1
 176 118 l 1
 176 59 l 1
 118 59 l 1
176 0 m 1
 176 59 l 1
 235 59 l 1
 235 0 l 1
 176 0 l 1
EndSplineSet
EndChar

StartChar: parenright
Encoding: 41 41 9
Width: 412
Flags: HW
LayerCount: 2
Back
Fore
SplineSet
176 588 m 1
 176 647 l 1
 235 647 l 1
 235 588 l 1
 176 588 l 1
235 529 m 1
 235 588 l 1
 294 588 l 1
 294 529 l 1
 235 529 l 1
235 471 m 1
 235 529 l 1
 294 529 l 1
 294 471 l 1
 235 471 l 1
294 412 m 1
 294 471 l 1
 353 471 l 1
 353 412 l 1
 294 412 l 1
294 353 m 1
 294 412 l 1
 353 412 l 1
 353 353 l 1
 294 353 l 1
294 294 m 1
 294 353 l 1
 353 353 l 1
 353 294 l 1
 294 294 l 1
294 235 m 1
 294 294 l 1
 353 294 l 1
 353 235 l 1
 294 235 l 1
294 176 m 1
 294 235 l 1
 353 235 l 1
 353 176 l 1
 294 176 l 1
235 118 m 1
 235 176 l 1
 294 176 l 1
 294 118 l 1
 235 118 l 1
235 59 m 1
 235 118 l 1
 294 118 l 1
 294 59 l 1
 235 59 l 1
176 0 m 1
 176 59 l 1
 235 59 l 1
 235 0 l 1
 176 0 l 1
EndSplineSet
EndChar

StartChar: asterisk
Encoding: 42 42 10
Width: 412
Flags: HW
LayerCount: 2
Back
Fore
SplineSet
176 529 m 1
 176 588 l 1
 235 588 l 1
 235 529 l 1
 176 529 l 1
59 471 m 1
 59 529 l 1
 118 529 l 1
 118 471 l 1
 59 471 l 1
176 471 m 1
 176 529 l 1
 235 529 l 1
 235 471 l 1
 176 471 l 1
294 471 m 1
 294 529 l 1
 353 529 l 1
 353 471 l 1
 294 471 l 1
59 412 m 1
 59 471 l 1
 118 471 l 1
 118 412 l 1
 59 412 l 1
176 412 m 1
 176 471 l 1
 235 471 l 1
 235 412 l 1
 176 412 l 1
294 412 m 1
 294 471 l 1
 353 471 l 1
 353 412 l 1
 294 412 l 1
118 353 m 1
 118 412 l 1
 294 412 l 1
 294 353 l 1
 118 353 l 1
176 294 m 1
 176 353 l 1
 235 353 l 1
 235 294 l 1
 176 294 l 1
118 235 m 1
 118 294 l 1
 294 294 l 1
 294 235 l 1
 118 235 l 1
59 176 m 1
 59 235 l 1
 118 235 l 1
 118 176 l 1
 59 176 l 1
176 176 m 1
 176 235 l 1
 235 235 l 1
 235 176 l 1
 176 176 l 1
294 176 m 1
 294 235 l 1
 353 235 l 1
 353 176 l 1
 294 176 l 1
59 118 m 1
 59 176 l 1
 118 176 l 1
 118 118 l 1
 59 118 l 1
176 118 m 1
 176 176 l 1
 235 176 l 1
 235 118 l 1
 176 118 l 1
294 118 m 1
 294 176 l 1
 353 176 l 1
 353 118 l 1
 294 118 l 1
176 59 m 1
 176 118 l 1
 235 118 l 1
 235 59 l 1
 176 59 l 1
EndSplineSet
EndChar

StartChar: plus
Encoding: 43 43 11
Width: 412
Flags: HW
LayerCount: 2
Back
Fore
SplineSet
176 471 m 1
 176 529 l 1
 235 529 l 1
 235 471 l 1
 176 471 l 1
176 412 m 1
 176 471 l 1
 235 471 l 1
 235 412 l 1
 176 412 l 1
176 353 m 1
 176 412 l 1
 235 412 l 1
 235 353 l 1
 176 353 l 1
59 294 m 1
 59 353 l 1
 353 353 l 1
 353 294 l 1
 59 294 l 1
176 235 m 1
 176 294 l 1
 235 294 l 1
 235 235 l 1
 176 235 l 1
176 176 m 1
 176 235 l 1
 235 235 l 1
 235 176 l 1
 176 176 l 1
176 118 m 1
 176 176 l 1
 235 176 l 1
 235 118 l 1
 176 118 l 1
EndSplineSet
EndChar

StartChar: comma
Encoding: 44 44 12
Width: 412
Flags: HW
LayerCount: 2
Back
Fore
SplineSet
176 59 m 1
 176 118 l 1
 235 118 l 1
 235 59 l 1
 176 59 l 1
176 0 m 1
 176 59 l 1
 235 59 l 1
 235 0 l 1
 176 0 l 1
176 -59 m 1
 176 0 l 1
 235 0 l 1
 235 -59 l 1
 176 -59 l 1
118 -118 m 1
 118 -59 l 1
 176 -59 l 1
 176 -118 l 1
 118 -118 l 1
EndSplineSet
EndChar

StartChar: hyphen
Encoding: 45 45 13
Width: 412
Flags: HW
LayerCount: 2
Back
Fore
SplineSet
59 294 m 1
 59 353 l 1
 353 353 l 1
 353 294 l 1
 59 294 l 1
EndSplineSet
EndChar

StartChar: period
Encoding: 46 46 14
Width: 412
Flags: HW
LayerCount: 2
Back
Fore
SplineSet
176 59 m 1
 176 118 l 1
 235 118 l 1
 235 59 l 1
 176 59 l 1
176 0 m 1
 176 59 l 1
 235 59 l 1
 235 0 l 1
 176 0 l 1
EndSplineSet
EndChar

StartChar: slash
Encoding: 47 47 15
Width: 412
Flags: HW
LayerCount: 2
Back
Fore
SplineSet
294 471 m 1
 294 529 l 1
 353 529 l 1
 353 471 l 1
 294 471 l 1
235 412 m 1
 235 471 l 1
 294 471 l 1
 294 412 l 1
 235 412 l 1
235 353 m 1
 235 412 l 1
 294 412 l 1
 294 353 l 1
 235 353 l 1
176 294 m 1
 176 353 l 1
 235 353 l 1
 235 294 l 1
 176 294 l 1
118 235 m 1
 118 294 l 1
 176 294 l 1
 176 235 l 1
 118 235 l 1
118 176 m 1
 118 235 l 1
 176 235 l 1
 176 176 l 1
 118 176 l 1
59 118 m 1
 59 176 l 1
 118 176 l 1
 118 118 l 1
 59 118 l 1
EndSplineSet
EndChar

StartChar: zero
Encoding: 48 48 16
Width: 412
Flags: HW
LayerCount: 2
Back
Fore
SplineSet
118 588 m 1
 118 647 l 1
 294 647 l 1
 294 588 l 1
 118 588 l 1
59 529 m 1
 59 588 l 1
 118 588 l 1
 118 529 l 1
 59 529 l 1
294 529 m 1
 294 588 l 1
 353 588 l 1
 353 529 l 1
 294 529 l 1
59 471 m 1
 59 529 l 1
 118 529 l 1
 118 471 l 1
 59 471 l 1
235 471 m 1
 235 529 l 1
 353 529 l 1
 353 471 l 1
 235 471 l 1
59 412 m 1
 59 471 l 1
 118 471 l 1
 118 412 l 1
 59 412 l 1
235 412 m 1
 235 471 l 1
 353 471 l 1
 353 412 l 1
 235 412 l 1
59 353 m 1
 59 412 l 1
 118 412 l 1
 118 353 l 1
 59 353 l 1
176 353 m 1
 176 412 l 1
 235 412 l 1
 235 353 l 1
 176 353 l 1
294 353 m 1
 294 412 l 1
 353 412 l 1
 353 353 l 1
 294 353 l 1
59 294 m 1
 59 353 l 1
 118 353 l 1
 118 294 l 1
 59 294 l 1
176 294 m 1
 176 353 l 1
 235 353 l 1
 235 294 l 1
 176 294 l 1
294 294 m 1
 294 353 l 1
 353 353 l 1
 353 294 l 1
 294 294 l 1
59 235 m 1
 59 294 l 1
 176 294 l 1
 176 235 l 1
 59 235 l 1
294 235 m 1
 294 294 l 1
 353 294 l 1
 353 235 l 1
 294 235 l 1
59 176 m 1
 59 235 l 1
 176 235 l 1
 176 176 l 1
 59 176 l 1
294 176 m 1
 294 235 l 1
 353 235 l 1
 353 176 l 1
 294 176 l 1
59 118 m 1
 59 176 l 1
 118 176 l 1
 118 118 l 1
 59 118 l 1
294 118 m 1
 294 176 l 1
 353 176 l 1
 353 118 l 1
 294 118 l 1
59 59 m 1
 59 118 l 1
 118 118 l 1
 118 59 l 1
 59 59 l 1
294 59 m 1
 294 118 l 1
 353 118 l 1
 353 59 l 1
 294 59 l 1
118 0 m 1
 118 59 l 1
 294 59 l 1
 294 0 l 1
 118 0 l 1
EndSplineSet
EndChar

StartChar: one
Encoding: 49 49 17
Width: 412
Flags: HW
LayerCount: 2
Back
Fore
SplineSet
235 588 m 1
 235 647 l 1
 294 647 l 1
 294 588 l 1
 235 588 l 1
176 529 m 1
 176 588 l 1
 294 588 l 1
 294 529 l 1
 176 529 l 1
118 471 m 1
 118 529 l 1
 176 529 l 1
 176 471 l 1
 118 471 l 1
235 471 m 1
 235 529 l 1
 294 529 l 1
 294 471 l 1
 235 471 l 1
59 412 m 1
 59 471 l 1
 118 471 l 1
 118 412 l 1
 59 412 l 1
235 412 m 1
 235 471 l 1
 294 471 l 1
 294 412 l 1
 235 412 l 1
235 353 m 1
 235 412 l 1
 294 412 l 1
 294 353 l 1
 235 353 l 1
235 294 m 1
 235 353 l 1
 294 353 l 1
 294 294 l 1
 235 294 l 1
235 235 m 1
 235 294 l 1
 294 294 l 1
 294 235 l 1
 235 235 l 1
235 176 m 1
 235 235 l 1
 294 235 l 1
 294 176 l 1
 235 176 l 1
235 118 m 1
 235 176 l 1
 294 176 l 1
 294 118 l 1
 235 118 l 1
235 59 m 1
 235 118 l 1
 294 118 l 1
 294 59 l 1
 235 59 l 1
235 0 m 1
 235 59 l 1
 294 59 l 1
 294 0 l 1
 235 0 l 1
EndSplineSet
EndChar

StartChar: two
Encoding: 50 50 18
Width: 412
Flags: HW
LayerCount: 2
Back
Fore
SplineSet
118 588 m 1
 118 647 l 1
 294 647 l 1
 294 588 l 1
 118 588 l 1
59 529 m 1
 59 588 l 1
 118 588 l 1
 118 529 l 1
 59 529 l 1
294 529 m 1
 294 588 l 1
 353 588 l 1
 353 529 l 1
 294 529 l 1
294 471 m 1
 294 529 l 1
 353 529 l 1
 353 471 l 1
 294 471 l 1
294 412 m 1
 294 471 l 1
 353 471 l 1
 353 412 l 1
 294 412 l 1
235 353 m 1
 235 412 l 1
 294 412 l 1
 294 353 l 1
 235 353 l 1
176 294 m 1
 176 353 l 1
 235 353 l 1
 235 294 l 1
 176 294 l 1
118 235 m 1
 118 294 l 1
 176 294 l 1
 176 235 l 1
 118 235 l 1
118 176 m 1
 118 235 l 1
 176 235 l 1
 176 176 l 1
 118 176 l 1
59 118 m 1
 59 176 l 1
 118 176 l 1
 118 118 l 1
 59 118 l 1
59 59 m 1
 59 118 l 1
 118 118 l 1
 118 59 l 1
 59 59 l 1
59 0 m 1
 59 59 l 1
 353 59 l 1
 353 0 l 1
 59 0 l 1
EndSplineSet
EndChar

StartChar: three
Encoding: 51 51 19
Width: 412
Flags: HW
LayerCount: 2
Back
Fore
SplineSet
59 588 m 1
 59 647 l 1
 353 647 l 1
 353 588 l 1
 59 588 l 1
294 529 m 1
 294 588 l 1
 353 588 l 1
 353 529 l 1
 294 529 l 1
235 471 m 1
 235 529 l 1
 294 529 l 1
 294 471 l 1
 235 471 l 1
235 412 m 1
 235 471 l 1
 294 471 l 1
 294 412 l 1
 235 412 l 1
176 353 m 1
 176 412 l 1
 235 412 l 1
 235 353 l 1
 176 353 l 1
176 294 m 1
 176 353 l 1
 294 353 l 1
 294 294 l 1
 176 294 l 1
294 235 m 1
 294 294 l 1
 353 294 l 1
 353 235 l 1
 294 235 l 1
294 176 m 1
 294 235 l 1
 353 235 l 1
 353 176 l 1
 294 176 l 1
294 118 m 1
 294 176 l 1
 353 176 l 1
 353 118 l 1
 294 118 l 1
59 59 m 1
 59 118 l 1
 118 118 l 1
 118 59 l 1
 59 59 l 1
294 59 m 1
 294 118 l 1
 353 118 l 1
 353 59 l 1
 294 59 l 1
118 0 m 1
 118 59 l 1
 294 59 l 1
 294 0 l 1
 118 0 l 1
EndSplineSet
EndChar

StartChar: four
Encoding: 52 52 20
Width: 412
Flags: HW
LayerCount: 2
Back
Fore
SplineSet
235 588 m 1
 235 647 l 1
 294 647 l 1
 294 588 l 1
 235 588 l 1
235 529 m 1
 235 588 l 1
 294 588 l 1
 294 529 l 1
 235 529 l 1
176 471 m 1
 176 529 l 1
 294 529 l 1
 294 471 l 1
 176 471 l 1
176 412 m 1
 176 471 l 1
 294 471 l 1
 294 412 l 1
 176 412 l 1
118 353 m 1
 118 412 l 1
 176 412 l 1
 176 353 l 1
 118 353 l 1
235 353 m 1
 235 412 l 1
 294 412 l 1
 294 353 l 1
 235 353 l 1
118 294 m 1
 118 353 l 1
 176 353 l 1
 176 294 l 1
 118 294 l 1
235 294 m 1
 235 353 l 1
 294 353 l 1
 294 294 l 1
 235 294 l 1
59 235 m 1
 59 294 l 1
 118 294 l 1
 118 235 l 1
 59 235 l 1
235 235 m 1
 235 294 l 1
 294 294 l 1
 294 235 l 1
 235 235 l 1
59 176 m 1
 59 235 l 1
 353 235 l 1
 353 176 l 1
 59 176 l 1
235 118 m 1
 235 176 l 1
 294 176 l 1
 294 118 l 1
 235 118 l 1
235 59 m 1
 235 118 l 1
 294 118 l 1
 294 59 l 1
 235 59 l 1
235 0 m 1
 235 59 l 1
 294 59 l 1
 294 0 l 1
 235 0 l 1
EndSplineSet
EndChar

StartChar: five
Encoding: 53 53 21
Width: 412
Flags: HW
LayerCount: 2
Back
Fore
SplineSet
59 588 m 1
 59 647 l 1
 353 647 l 1
 353 588 l 1
 59 588 l 1
59 529 m 1
 59 588 l 1
 118 588 l 1
 118 529 l 1
 59 529 l 1
59 471 m 1
 59 529 l 1
 118 529 l 1
 118 471 l 1
 59 471 l 1
59 412 m 1
 59 471 l 1
 235 471 l 1
 235 412 l 1
 59 412 l 1
235 353 m 1
 235 412 l 1
 294 412 l 1
 294 353 l 1
 235 353 l 1
294 294 m 1
 294 353 l 1
 353 353 l 1
 353 294 l 1
 294 294 l 1
294 235 m 1
 294 294 l 1
 353 294 l 1
 353 235 l 1
 294 235 l 1
294 176 m 1
 294 235 l 1
 353 235 l 1
 353 176 l 1
 294 176 l 1
294 118 m 1
 294 176 l 1
 353 176 l 1
 353 118 l 1
 294 118 l 1
59 59 m 1
 59 118 l 1
 118 118 l 1
 118 59 l 1
 59 59 l 1
294 59 m 1
 294 118 l 1
 353 118 l 1
 353 59 l 1
 294 59 l 1
118 0 m 1
 118 59 l 1
 294 59 l 1
 294 0 l 1
 118 0 l 1
EndSplineSet
EndChar

StartChar: six
Encoding: 54 54 22
Width: 412
Flags: HW
LayerCount: 2
Back
Fore
SplineSet
176 588 m 1
 176 647 l 1
 353 647 l 1
 353 588 l 1
 176 588 l 1
118 529 m 1
 118 588 l 1
 176 588 l 1
 176 529 l 1
 118 529 l 1
118 471 m 1
 118 529 l 1
 176 529 l 1
 176 471 l 1
 118 471 l 1
59 412 m 1
 59 471 l 1
 118 471 l 1
 118 412 l 1
 59 412 l 1
59 353 m 1
 59 412 l 1
 118 412 l 1
 118 353 l 1
 59 353 l 1
59 294 m 1
 59 353 l 1
 294 353 l 1
 294 294 l 1
 59 294 l 1
59 235 m 1
 59 294 l 1
 118 294 l 1
 118 235 l 1
 59 235 l 1
294 235 m 1
 294 294 l 1
 353 294 l 1
 353 235 l 1
 294 235 l 1
59 176 m 1
 59 235 l 1
 118 235 l 1
 118 176 l 1
 59 176 l 1
294 176 m 1
 294 235 l 1
 353 235 l 1
 353 176 l 1
 294 176 l 1
59 118 m 1
 59 176 l 1
 118 176 l 1
 118 118 l 1
 59 118 l 1
294 118 m 1
 294 176 l 1
 353 176 l 1
 353 118 l 1
 294 118 l 1
59 59 m 1
 59 118 l 1
 118 118 l 1
 118 59 l 1
 59 59 l 1
294 59 m 1
 294 118 l 1
 353 118 l 1
 353 59 l 1
 294 59 l 1
118 0 m 1
 118 59 l 1
 294 59 l 1
 294 0 l 1
 118 0 l 1
EndSplineSet
EndChar

StartChar: seven
Encoding: 55 55 23
Width: 412
Flags: HW
LayerCount: 2
Back
Fore
SplineSet
59 588 m 1
 59 647 l 1
 353 647 l 1
 353 588 l 1
 59 588 l 1
294 529 m 1
 294 588 l 1
 353 588 l 1
 353 529 l 1
 294 529 l 1
235 471 m 1
 235 529 l 1
 294 529 l 1
 294 471 l 1
 235 471 l 1
235 412 m 1
 235 471 l 1
 294 471 l 1
 294 412 l 1
 235 412 l 1
176 353 m 1
 176 412 l 1
 235 412 l 1
 235 353 l 1
 176 353 l 1
176 294 m 1
 176 353 l 1
 235 353 l 1
 235 294 l 1
 176 294 l 1
118 235 m 1
 118 294 l 1
 176 294 l 1
 176 235 l 1
 118 235 l 1
118 176 m 1
 118 235 l 1
 176 235 l 1
 176 176 l 1
 118 176 l 1
118 118 m 1
 118 176 l 1
 176 176 l 1
 176 118 l 1
 118 118 l 1
118 59 m 1
 118 118 l 1
 176 118 l 1
 176 59 l 1
 118 59 l 1
118 0 m 1
 118 59 l 1
 176 59 l 1
 176 0 l 1
 118 0 l 1
EndSplineSet
EndChar

StartChar: eight
Encoding: 56 56 24
Width: 412
Flags: HW
LayerCount: 2
Back
Fore
SplineSet
118 588 m 1
 118 647 l 1
 294 647 l 1
 294 588 l 1
 118 588 l 1
59 529 m 1
 59 588 l 1
 118 588 l 1
 118 529 l 1
 59 529 l 1
294 529 m 1
 294 588 l 1
 353 588 l 1
 353 529 l 1
 294 529 l 1
59 471 m 1
 59 529 l 1
 118 529 l 1
 118 471 l 1
 59 471 l 1
294 471 m 1
 294 529 l 1
 353 529 l 1
 353 471 l 1
 294 471 l 1
59 412 m 1
 59 471 l 1
 118 471 l 1
 118 412 l 1
 59 412 l 1
294 412 m 1
 294 471 l 1
 353 471 l 1
 353 412 l 1
 294 412 l 1
59 353 m 1
 59 412 l 1
 118 412 l 1
 118 353 l 1
 59 353 l 1
294 353 m 1
 294 412 l 1
 353 412 l 1
 353 353 l 1
 294 353 l 1
118 294 m 1
 118 353 l 1
 294 353 l 1
 294 294 l 1
 118 294 l 1
59 235 m 1
 59 294 l 1
 118 294 l 1
 118 235 l 1
 59 235 l 1
294 235 m 1
 294 294 l 1
 353 294 l 1
 353 235 l 1
 294 235 l 1
59 176 m 1
 59 235 l 1
 118 235 l 1
 118 176 l 1
 59 176 l 1
294 176 m 1
 294 235 l 1
 353 235 l 1
 353 176 l 1
 294 176 l 1
59 118 m 1
 59 176 l 1
 118 176 l 1
 118 118 l 1
 59 118 l 1
294 118 m 1
 294 176 l 1
 353 176 l 1
 353 118 l 1
 294 118 l 1
59 59 m 1
 59 118 l 1
 118 118 l 1
 118 59 l 1
 59 59 l 1
294 59 m 1
 294 118 l 1
 353 118 l 1
 353 59 l 1
 294 59 l 1
118 0 m 1
 118 59 l 1
 294 59 l 1
 294 0 l 1
 118 0 l 1
EndSplineSet
EndChar

StartChar: nine
Encoding: 57 57 25
Width: 412
Flags: HW
LayerCount: 2
Back
Fore
SplineSet
118 588 m 1
 118 647 l 1
 294 647 l 1
 294 588 l 1
 118 588 l 1
59 529 m 1
 59 588 l 1
 118 588 l 1
 118 529 l 1
 59 529 l 1
294 529 m 1
 294 588 l 1
 353 588 l 1
 353 529 l 1
 294 529 l 1
59 471 m 1
 59 529 l 1
 118 529 l 1
 118 471 l 1
 59 471 l 1
294 471 m 1
 294 529 l 1
 353 529 l 1
 353 471 l 1
 294 471 l 1
59 412 m 1
 59 471 l 1
 118 471 l 1
 118 412 l 1
 59 412 l 1
294 412 m 1
 294 471 l 1
 353 471 l 1
 353 412 l 1
 294 412 l 1
59 353 m 1
 59 412 l 1
 118 412 l 1
 118 353 l 1
 59 353 l 1
294 353 m 1
 294 412 l 1
 353 412 l 1
 353 353 l 1
 294 353 l 1
118 294 m 1
 118 353 l 1
 353 353 l 1
 353 294 l 1
 118 294 l 1
294 235 m 1
 294 294 l 1
 353 294 l 1
 353 235 l 1
 294 235 l 1
294 176 m 1
 294 235 l 1
 353 235 l 1
 353 176 l 1
 294 176 l 1
235 118 m 1
 235 176 l 1
 294 176 l 1
 294 118 l 1
 235 118 l 1
235 59 m 1
 235 118 l 1
 294 118 l 1
 294 59 l 1
 235 59 l 1
59 0 m 1
 59 59 l 1
 235 59 l 1
 235 0 l 1
 59 0 l 1
EndSplineSet
EndChar

StartChar: colon
Encoding: 58 58 26
Width: 412
Flags: HW
LayerCount: 2
Back
Fore
SplineSet
176 471 m 1
 176 529 l 1
 235 529 l 1
 235 471 l 1
 176 471 l 1
176 412 m 1
 176 471 l 1
 235 471 l 1
 235 412 l 1
 176 412 l 1
176 176 m 1
 176 235 l 1
 235 235 l 1
 235 176 l 1
 176 176 l 1
176 118 m 1
 176 176 l 1
 235 176 l 1
 235 118 l 1
 176 118 l 1
EndSplineSet
EndChar

StartChar: semicolon
Encoding: 59 59 27
Width: 412
Flags: HW
LayerCount: 2
Back
Fore
SplineSet
176 471 m 1
 176 529 l 1
 235 529 l 1
 235 471 l 1
 176 471 l 1
176 412 m 1
 176 471 l 1
 235 471 l 1
 235 412 l 1
 176 412 l 1
176 176 m 1
 176 235 l 1
 235 235 l 1
 235 176 l 1
 176 176 l 1
176 118 m 1
 176 176 l 1
 235 176 l 1
 235 118 l 1
 176 118 l 1
176 59 m 1
 176 118 l 1
 235 118 l 1
 235 59 l 1
 176 59 l 1
118 0 m 1
 118 59 l 1
 176 59 l 1
 176 0 l 1
 118 0 l 1
EndSplineSet
EndChar

StartChar: less
Encoding: 60 60 28
Width: 412
Flags: HW
LayerCount: 2
Back
Fore
SplineSet
294 529 m 1
 294 588 l 1
 353 588 l 1
 353 529 l 1
 294 529 l 1
235 471 m 1
 235 529 l 1
 294 529 l 1
 294 471 l 1
 235 471 l 1
176 412 m 1
 176 471 l 1
 235 471 l 1
 235 412 l 1
 176 412 l 1
118 353 m 1
 118 412 l 1
 176 412 l 1
 176 353 l 1
 118 353 l 1
59 294 m 1
 59 353 l 1
 118 353 l 1
 118 294 l 1
 59 294 l 1
118 235 m 1
 118 294 l 1
 176 294 l 1
 176 235 l 1
 118 235 l 1
176 176 m 1
 176 235 l 1
 235 235 l 1
 235 176 l 1
 176 176 l 1
235 118 m 1
 235 176 l 1
 294 176 l 1
 294 118 l 1
 235 118 l 1
294 59 m 1
 294 118 l 1
 353 118 l 1
 353 59 l 1
 294 59 l 1
EndSplineSet
EndChar

StartChar: equal
Encoding: 61 61 29
Width: 412
Flags: HW
LayerCount: 2
Back
Fore
SplineSet
59 412 m 1
 59 471 l 1
 353 471 l 1
 353 412 l 1
 59 412 l 1
59 176 m 1
 59 235 l 1
 353 235 l 1
 353 176 l 1
 59 176 l 1
EndSplineSet
EndChar

StartChar: greater
Encoding: 62 62 30
Width: 412
Flags: HW
LayerCount: 2
Back
Fore
SplineSet
59 529 m 1
 59 588 l 1
 118 588 l 1
 118 529 l 1
 59 529 l 1
118 471 m 1
 118 529 l 1
 176 529 l 1
 176 471 l 1
 118 471 l 1
176 412 m 1
 176 471 l 1
 235 471 l 1
 235 412 l 1
 176 412 l 1
235 353 m 1
 235 412 l 1
 294 412 l 1
 294 353 l 1
 235 353 l 1
294 294 m 1
 294 353 l 1
 353 353 l 1
 353 294 l 1
 294 294 l 1
235 235 m 1
 235 294 l 1
 294 294 l 1
 294 235 l 1
 235 235 l 1
176 176 m 1
 176 235 l 1
 235 235 l 1
 235 176 l 1
 176 176 l 1
118 118 m 1
 118 176 l 1
 176 176 l 1
 176 118 l 1
 118 118 l 1
59 59 m 1
 59 118 l 1
 118 118 l 1
 118 59 l 1
 59 59 l 1
EndSplineSet
EndChar

StartChar: question
Encoding: 63 63 31
Width: 412
Flags: HW
LayerCount: 2
Back
Fore
SplineSet
118 588 m 1
 118 647 l 1
 294 647 l 1
 294 588 l 1
 118 588 l 1
59 529 m 1
 59 588 l 1
 118 588 l 1
 118 529 l 1
 59 529 l 1
294 529 m 1
 294 588 l 1
 353 588 l 1
 353 529 l 1
 294 529 l 1
294 471 m 1
 294 529 l 1
 353 529 l 1
 353 471 l 1
 294 471 l 1
235 412 m 1
 235 471 l 1
 294 471 l 1
 294 412 l 1
 235 412 l 1
176 353 m 1
 176 412 l 1
 235 412 l 1
 235 353 l 1
 176 353 l 1
176 294 m 1
 176 353 l 1
 235 353 l 1
 235 294 l 1
 176 294 l 1
176 235 m 1
 176 294 l 1
 235 294 l 1
 235 235 l 1
 176 235 l 1
176 59 m 1
 176 118 l 1
 235 118 l 1
 235 59 l 1
 176 59 l 1
176 0 m 1
 176 59 l 1
 235 59 l 1
 235 0 l 1
 176 0 l 1
EndSplineSet
EndChar

StartChar: at
Encoding: 64 64 32
Width: 412
Flags: HW
LayerCount: 2
Back
Fore
SplineSet
118 588 m 1
 118 647 l 1
 294 647 l 1
 294 588 l 1
 118 588 l 1
59 529 m 1
 59 588 l 1
 118 588 l 1
 118 529 l 1
 59 529 l 1
294 529 m 1
 294 588 l 1
 353 588 l 1
 353 529 l 1
 294 529 l 1
59 471 m 1
 59 529 l 1
 118 529 l 1
 118 471 l 1
 59 471 l 1
294 471 m 1
 294 529 l 1
 353 529 l 1
 353 471 l 1
 294 471 l 1
59 412 m 1
 59 471 l 1
 118 471 l 1
 118 412 l 1
 59 412 l 1
294 412 m 1
 294 471 l 1
 353 471 l 1
 353 412 l 1
 294 412 l 1
59 353 m 1
 59 412 l 1
 118 412 l 1
 118 353 l 1
 59 353 l 1
235 353 m 1
 235 412 l 1
 353 412 l 1
 353 353 l 1
 235 353 l 1
59 294 m 1
 59 353 l 1
 118 353 l 1
 118 294 l 1
 59 294 l 1
176 294 m 1
 176 353 l 1
 235 353 l 1
 235 294 l 1
 176 294 l 1
294 294 m 1
 294 353 l 1
 353 353 l 1
 353 294 l 1
 294 294 l 1
59 235 m 1
 59 294 l 1
 118 294 l 1
 118 235 l 1
 59 235 l 1
176 235 m 1
 176 294 l 1
 235 294 l 1
 235 235 l 1
 176 235 l 1
294 235 m 1
 294 294 l 1
 353 294 l 1
 353 235 l 1
 294 235 l 1
59 176 m 1
 59 235 l 1
 118 235 l 1
 118 176 l 1
 59 176 l 1
176 176 m 1
 176 235 l 1
 353 235 l 1
 353 176 l 1
 176 176 l 1
59 118 m 1
 59 176 l 1
 118 176 l 1
 118 118 l 1
 59 118 l 1
59 59 m 1
 59 118 l 1
 118 118 l 1
 118 59 l 1
 59 59 l 1
118 0 m 1
 118 59 l 1
 353 59 l 1
 353 0 l 1
 118 0 l 1
EndSplineSet
EndChar

StartChar: A
Encoding: 65 65 33
Width: 412
Flags: HW
LayerCount: 2
Back
Fore
SplineSet
176 588 m 1
 176 647 l 1
 235 647 l 1
 235 588 l 1
 176 588 l 1
176 529 m 1
 176 588 l 1
 235 588 l 1
 235 529 l 1
 176 529 l 1
118 471 m 1
 118 529 l 1
 176 529 l 1
 176 471 l 1
 118 471 l 1
235 471 m 1
 235 529 l 1
 294 529 l 1
 294 471 l 1
 235 471 l 1
118 412 m 1
 118 471 l 1
 176 471 l 1
 176 412 l 1
 118 412 l 1
235 412 m 1
 235 471 l 1
 294 471 l 1
 294 412 l 1
 235 412 l 1
59 353 m 1
 59 412 l 1
 118 412 l 1
 118 353 l 1
 59 353 l 1
294 353 m 1
 294 412 l 1
 353 412 l 1
 353 353 l 1
 294 353 l 1
59 294 m 1
 59 353 l 1
 118 353 l 1
 118 294 l 1
 59 294 l 1
294 294 m 1
 294 353 l 1
 353 353 l 1
 353 294 l 1
 294 294 l 1
59 235 m 1
 59 294 l 1
 118 294 l 1
 118 235 l 1
 59 235 l 1
294 235 m 1
 294 294 l 1
 353 294 l 1
 353 235 l 1
 294 235 l 1
59 176 m 1
 59 235 l 1
 353 235 l 1
 353 176 l 1
 59 176 l 1
59 118 m 1
 59 176 l 1
 118 176 l 1
 118 118 l 1
 59 118 l 1
294 118 m 1
 294 176 l 1
 353 176 l 1
 353 118 l 1
 294 118 l 1
59 59 m 1
 59 118 l 1
 118 118 l 1
 118 59 l 1
 59 59 l 1
294 59 m 1
 294 118 l 1
 353 118 l 1
 353 59 l 1
 294 59 l 1
59 0 m 1
 59 59 l 1
 118 59 l 1
 118 0 l 1
 59 0 l 1
294 0 m 1
 294 59 l 1
 353 59 l 1
 353 0 l 1
 294 0 l 1
EndSplineSet
EndChar

StartChar: B
Encoding: 66 66 34
Width: 412
Flags: HW
LayerCount: 2
Back
Fore
SplineSet
59 588 m 1
 59 647 l 1
 294 647 l 1
 294 588 l 1
 59 588 l 1
59 529 m 1
 59 588 l 1
 118 588 l 1
 118 529 l 1
 59 529 l 1
294 529 m 1
 294 588 l 1
 353 588 l 1
 353 529 l 1
 294 529 l 1
59 471 m 1
 59 529 l 1
 118 529 l 1
 118 471 l 1
 59 471 l 1
294 471 m 1
 294 529 l 1
 353 529 l 1
 353 471 l 1
 294 471 l 1
59 412 m 1
 59 471 l 1
 118 471 l 1
 118 412 l 1
 59 412 l 1
294 412 m 1
 294 471 l 1
 353 471 l 1
 353 412 l 1
 294 412 l 1
59 353 m 1
 59 412 l 1
 118 412 l 1
 118 353 l 1
 59 353 l 1
294 353 m 1
 294 412 l 1
 353 412 l 1
 353 353 l 1
 294 353 l 1
59 294 m 1
 59 353 l 1
 294 353 l 1
 294 294 l 1
 59 294 l 1
59 235 m 1
 59 294 l 1
 118 294 l 1
 118 235 l 1
 59 235 l 1
294 235 m 1
 294 294 l 1
 353 294 l 1
 353 235 l 1
 294 235 l 1
59 176 m 1
 59 235 l 1
 118 235 l 1
 118 176 l 1
 59 176 l 1
294 176 m 1
 294 235 l 1
 353 235 l 1
 353 176 l 1
 294 176 l 1
59 118 m 1
 59 176 l 1
 118 176 l 1
 118 118 l 1
 59 118 l 1
294 118 m 1
 294 176 l 1
 353 176 l 1
 353 118 l 1
 294 118 l 1
59 59 m 1
 59 118 l 1
 118 118 l 1
 118 59 l 1
 59 59 l 1
294 59 m 1
 294 118 l 1
 353 118 l 1
 353 59 l 1
 294 59 l 1
59 0 m 1
 59 59 l 1
 294 59 l 1
 294 0 l 1
 59 0 l 1
EndSplineSet
EndChar

StartChar: C
Encoding: 67 67 35
Width: 412
Flags: HW
LayerCount: 2
Back
Fore
SplineSet
118 588 m 1
 118 647 l 1
 294 647 l 1
 294 588 l 1
 118 588 l 1
59 529 m 1
 59 588 l 1
 118 588 l 1
 118 529 l 1
 59 529 l 1
294 529 m 1
 294 588 l 1
 353 588 l 1
 353 529 l 1
 294 529 l 1
59 471 m 1
 59 529 l 1
 118 529 l 1
 118 471 l 1
 59 471 l 1
59 412 m 1
 59 471 l 1
 118 471 l 1
 118 412 l 1
 59 412 l 1
59 353 m 1
 59 412 l 1
 118 412 l 1
 118 353 l 1
 59 353 l 1
59 294 m 1
 59 353 l 1
 118 353 l 1
 118 294 l 1
 59 294 l 1
59 235 m 1
 59 294 l 1
 118 294 l 1
 118 235 l 1
 59 235 l 1
59 176 m 1
 59 235 l 1
 118 235 l 1
 118 176 l 1
 59 176 l 1
59 118 m 1
 59 176 l 1
 118 176 l 1
 118 118 l 1
 59 118 l 1
59 59 m 1
 59 118 l 1
 118 118 l 1
 118 59 l 1
 59 59 l 1
294 59 m 1
 294 118 l 1
 353 118 l 1
 353 59 l 1
 294 59 l 1
118 0 m 1
 118 59 l 1
 294 59 l 1
 294 0 l 1
 118 0 l 1
EndSplineSet
EndChar

StartChar: D
Encoding: 68 68 36
Width: 412
Flags: HW
LayerCount: 2
Back
Fore
SplineSet
59 588 m 1
 59 647 l 1
 294 647 l 1
 294 588 l 1
 59 588 l 1
59 529 m 1
 59 588 l 1
 118 588 l 1
 118 529 l 1
 59 529 l 1
294 529 m 1
 294 588 l 1
 353 588 l 1
 353 529 l 1
 294 529 l 1
59 471 m 1
 59 529 l 1
 118 529 l 1
 118 471 l 1
 59 471 l 1
294 471 m 1
 294 529 l 1
 353 529 l 1
 353 471 l 1
 294 471 l 1
59 412 m 1
 59 471 l 1
 118 471 l 1
 118 412 l 1
 59 412 l 1
294 412 m 1
 294 471 l 1
 353 471 l 1
 353 412 l 1
 294 412 l 1
59 353 m 1
 59 412 l 1
 118 412 l 1
 118 353 l 1
 59 353 l 1
294 353 m 1
 294 412 l 1
 353 412 l 1
 353 353 l 1
 294 353 l 1
59 294 m 1
 59 353 l 1
 118 353 l 1
 118 294 l 1
 59 294 l 1
294 294 m 1
 294 353 l 1
 353 353 l 1
 353 294 l 1
 294 294 l 1
59 235 m 1
 59 294 l 1
 118 294 l 1
 118 235 l 1
 59 235 l 1
294 235 m 1
 294 294 l 1
 353 294 l 1
 353 235 l 1
 294 235 l 1
59 176 m 1
 59 235 l 1
 118 235 l 1
 118 176 l 1
 59 176 l 1
294 176 m 1
 294 235 l 1
 353 235 l 1
 353 176 l 1
 294 176 l 1
59 118 m 1
 59 176 l 1
 118 176 l 1
 118 118 l 1
 59 118 l 1
294 118 m 1
 294 176 l 1
 353 176 l 1
 353 118 l 1
 294 118 l 1
59 59 m 1
 59 118 l 1
 118 118 l 1
 118 59 l 1
 59 59 l 1
294 59 m 1
 294 118 l 1
 353 118 l 1
 353 59 l 1
 294 59 l 1
59 0 m 1
 59 59 l 1
 294 59 l 1
 294 0 l 1
 59 0 l 1
EndSplineSet
EndChar

StartChar: E
Encoding: 69 69 37
Width: 412
Flags: HW
LayerCount: 2
Back
Fore
SplineSet
59 588 m 1
 59 647 l 1
 353 647 l 1
 353 588 l 1
 59 588 l 1
59 529 m 1
 59 588 l 1
 118 588 l 1
 118 529 l 1
 59 529 l 1
59 471 m 1
 59 529 l 1
 118 529 l 1
 118 471 l 1
 59 471 l 1
59 412 m 1
 59 471 l 1
 118 471 l 1
 118 412 l 1
 59 412 l 1
59 353 m 1
 59 412 l 1
 118 412 l 1
 118 353 l 1
 59 353 l 1
59 294 m 1
 59 353 l 1
 294 353 l 1
 294 294 l 1
 59 294 l 1
59 235 m 1
 59 294 l 1
 118 294 l 1
 118 235 l 1
 59 235 l 1
59 176 m 1
 59 235 l 1
 118 235 l 1
 118 176 l 1
 59 176 l 1
59 118 m 1
 59 176 l 1
 118 176 l 1
 118 118 l 1
 59 118 l 1
59 59 m 1
 59 118 l 1
 118 118 l 1
 118 59 l 1
 59 59 l 1
59 0 m 1
 59 59 l 1
 353 59 l 1
 353 0 l 1
 59 0 l 1
EndSplineSet
EndChar

StartChar: F
Encoding: 70 70 38
Width: 412
Flags: HW
LayerCount: 2
Back
Fore
SplineSet
59 588 m 1
 59 647 l 1
 353 647 l 1
 353 588 l 1
 59 588 l 1
59 529 m 1
 59 588 l 1
 118 588 l 1
 118 529 l 1
 59 529 l 1
59 471 m 1
 59 529 l 1
 118 529 l 1
 118 471 l 1
 59 471 l 1
59 412 m 1
 59 471 l 1
 118 471 l 1
 118 412 l 1
 59 412 l 1
59 353 m 1
 59 412 l 1
 118 412 l 1
 118 353 l 1
 59 353 l 1
59 294 m 1
 59 353 l 1
 294 353 l 1
 294 294 l 1
 59 294 l 1
59 235 m 1
 59 294 l 1
 118 294 l 1
 118 235 l 1
 59 235 l 1
59 176 m 1
 59 235 l 1
 118 235 l 1
 118 176 l 1
 59 176 l 1
59 118 m 1
 59 176 l 1
 118 176 l 1
 118 118 l 1
 59 118 l 1
59 59 m 1
 59 118 l 1
 118 118 l 1
 118 59 l 1
 59 59 l 1
59 0 m 1
 59 59 l 1
 118 59 l 1
 118 0 l 1
 59 0 l 1
EndSplineSet
EndChar

StartChar: G
Encoding: 71 71 39
Width: 412
Flags: HW
LayerCount: 2
Back
Fore
SplineSet
118 588 m 1
 118 647 l 1
 294 647 l 1
 294 588 l 1
 118 588 l 1
59 529 m 1
 59 588 l 1
 118 588 l 1
 118 529 l 1
 59 529 l 1
294 529 m 1
 294 588 l 1
 353 588 l 1
 353 529 l 1
 294 529 l 1
59 471 m 1
 59 529 l 1
 118 529 l 1
 118 471 l 1
 59 471 l 1
59 412 m 1
 59 471 l 1
 118 471 l 1
 118 412 l 1
 59 412 l 1
59 353 m 1
 59 412 l 1
 118 412 l 1
 118 353 l 1
 59 353 l 1
59 294 m 1
 59 353 l 1
 118 353 l 1
 118 294 l 1
 59 294 l 1
59 235 m 1
 59 294 l 1
 118 294 l 1
 118 235 l 1
 59 235 l 1
235 235 m 1
 235 294 l 1
 353 294 l 1
 353 235 l 1
 235 235 l 1
59 176 m 1
 59 235 l 1
 118 235 l 1
 118 176 l 1
 59 176 l 1
294 176 m 1
 294 235 l 1
 353 235 l 1
 353 176 l 1
 294 176 l 1
59 118 m 1
 59 176 l 1
 118 176 l 1
 118 118 l 1
 59 118 l 1
294 118 m 1
 294 176 l 1
 353 176 l 1
 353 118 l 1
 294 118 l 1
59 59 m 1
 59 118 l 1
 118 118 l 1
 118 59 l 1
 59 59 l 1
294 59 m 1
 294 118 l 1
 353 118 l 1
 353 59 l 1
 294 59 l 1
118 0 m 1
 118 59 l 1
 294 59 l 1
 294 0 l 1
 118 0 l 1
EndSplineSet
EndChar

StartChar: H
Encoding: 72 72 40
Width: 412
Flags: HW
LayerCount: 2
Back
Fore
SplineSet
59 588 m 1
 59 647 l 1
 118 647 l 1
 118 588 l 1
 59 588 l 1
294 588 m 1
 294 647 l 1
 353 647 l 1
 353 588 l 1
 294 588 l 1
59 529 m 1
 59 588 l 1
 118 588 l 1
 118 529 l 1
 59 529 l 1
294 529 m 1
 294 588 l 1
 353 588 l 1
 353 529 l 1
 294 529 l 1
59 471 m 1
 59 529 l 1
 118 529 l 1
 118 471 l 1
 59 471 l 1
294 471 m 1
 294 529 l 1
 353 529 l 1
 353 471 l 1
 294 471 l 1
59 412 m 1
 59 471 l 1
 118 471 l 1
 118 412 l 1
 59 412 l 1
294 412 m 1
 294 471 l 1
 353 471 l 1
 353 412 l 1
 294 412 l 1
59 353 m 1
 59 412 l 1
 118 412 l 1
 118 353 l 1
 59 353 l 1
294 353 m 1
 294 412 l 1
 353 412 l 1
 353 353 l 1
 294 353 l 1
59 294 m 1
 59 353 l 1
 353 353 l 1
 353 294 l 1
 59 294 l 1
59 235 m 1
 59 294 l 1
 118 294 l 1
 118 235 l 1
 59 235 l 1
294 235 m 1
 294 294 l 1
 353 294 l 1
 353 235 l 1
 294 235 l 1
59 176 m 1
 59 235 l 1
 118 235 l 1
 118 176 l 1
 59 176 l 1
294 176 m 1
 294 235 l 1
 353 235 l 1
 353 176 l 1
 294 176 l 1
59 118 m 1
 59 176 l 1
 118 176 l 1
 118 118 l 1
 59 118 l 1
294 118 m 1
 294 176 l 1
 353 176 l 1
 353 118 l 1
 294 118 l 1
59 59 m 1
 59 118 l 1
 118 118 l 1
 118 59 l 1
 59 59 l 1
294 59 m 1
 294 118 l 1
 353 118 l 1
 353 59 l 1
 294 59 l 1
59 0 m 1
 59 59 l 1
 118 59 l 1
 118 0 l 1
 59 0 l 1
294 0 m 1
 294 59 l 1
 353 59 l 1
 353 0 l 1
 294 0 l 1
EndSplineSet
EndChar

StartChar: I
Encoding: 73 73 41
Width: 412
Flags: HW
LayerCount: 2
Back
Fore
SplineSet
118 588 m 1
 118 647 l 1
 294 647 l 1
 294 588 l 1
 118 588 l 1
176 529 m 1
 176 588 l 1
 235 588 l 1
 235 529 l 1
 176 529 l 1
176 471 m 1
 176 529 l 1
 235 529 l 1
 235 471 l 1
 176 471 l 1
176 412 m 1
 176 471 l 1
 235 471 l 1
 235 412 l 1
 176 412 l 1
176 353 m 1
 176 412 l 1
 235 412 l 1
 235 353 l 1
 176 353 l 1
176 294 m 1
 176 353 l 1
 235 353 l 1
 235 294 l 1
 176 294 l 1
176 235 m 1
 176 294 l 1
 235 294 l 1
 235 235 l 1
 176 235 l 1
176 176 m 1
 176 235 l 1
 235 235 l 1
 235 176 l 1
 176 176 l 1
176 118 m 1
 176 176 l 1
 235 176 l 1
 235 118 l 1
 176 118 l 1
176 59 m 1
 176 118 l 1
 235 118 l 1
 235 59 l 1
 176 59 l 1
118 0 m 1
 118 59 l 1
 294 59 l 1
 294 0 l 1
 118 0 l 1
EndSplineSet
EndChar

StartChar: J
Encoding: 74 74 42
Width: 412
Flags: HW
LayerCount: 2
Back
Fore
SplineSet
294 588 m 1
 294 647 l 1
 353 647 l 1
 353 588 l 1
 294 588 l 1
294 529 m 1
 294 588 l 1
 353 588 l 1
 353 529 l 1
 294 529 l 1
294 471 m 1
 294 529 l 1
 353 529 l 1
 353 471 l 1
 294 471 l 1
294 412 m 1
 294 471 l 1
 353 471 l 1
 353 412 l 1
 294 412 l 1
294 353 m 1
 294 412 l 1
 353 412 l 1
 353 353 l 1
 294 353 l 1
294 294 m 1
 294 353 l 1
 353 353 l 1
 353 294 l 1
 294 294 l 1
294 235 m 1
 294 294 l 1
 353 294 l 1
 353 235 l 1
 294 235 l 1
294 176 m 1
 294 235 l 1
 353 235 l 1
 353 176 l 1
 294 176 l 1
294 118 m 1
 294 176 l 1
 353 176 l 1
 353 118 l 1
 294 118 l 1
59 59 m 1
 59 118 l 1
 118 118 l 1
 118 59 l 1
 59 59 l 1
294 59 m 1
 294 118 l 1
 353 118 l 1
 353 59 l 1
 294 59 l 1
118 0 m 1
 118 59 l 1
 294 59 l 1
 294 0 l 1
 118 0 l 1
EndSplineSet
EndChar

StartChar: K
Encoding: 75 75 43
Width: 412
Flags: HW
LayerCount: 2
Back
Fore
SplineSet
59 588 m 1
 59 647 l 1
 118 647 l 1
 118 588 l 1
 59 588 l 1
294 588 m 1
 294 647 l 1
 353 647 l 1
 353 588 l 1
 294 588 l 1
59 529 m 1
 59 588 l 1
 118 588 l 1
 118 529 l 1
 59 529 l 1
294 529 m 1
 294 588 l 1
 353 588 l 1
 353 529 l 1
 294 529 l 1
59 471 m 1
 59 529 l 1
 118 529 l 1
 118 471 l 1
 59 471 l 1
235 471 m 1
 235 529 l 1
 294 529 l 1
 294 471 l 1
 235 471 l 1
59 412 m 1
 59 471 l 1
 118 471 l 1
 118 412 l 1
 59 412 l 1
176 412 m 1
 176 471 l 1
 235 471 l 1
 235 412 l 1
 176 412 l 1
59 353 m 1
 59 412 l 1
 118 412 l 1
 118 353 l 1
 59 353 l 1
176 353 m 1
 176 412 l 1
 235 412 l 1
 235 353 l 1
 176 353 l 1
59 294 m 1
 59 353 l 1
 176 353 l 1
 176 294 l 1
 59 294 l 1
59 235 m 1
 59 294 l 1
 118 294 l 1
 118 235 l 1
 59 235 l 1
176 235 m 1
 176 294 l 1
 235 294 l 1
 235 235 l 1
 176 235 l 1
59 176 m 1
 59 235 l 1
 118 235 l 1
 118 176 l 1
 59 176 l 1
176 176 m 1
 176 235 l 1
 235 235 l 1
 235 176 l 1
 176 176 l 1
59 118 m 1
 59 176 l 1
 118 176 l 1
 118 118 l 1
 59 118 l 1
235 118 m 1
 235 176 l 1
 294 176 l 1
 294 118 l 1
 235 118 l 1
59 59 m 1
 59 118 l 1
 118 118 l 1
 118 59 l 1
 59 59 l 1
294 59 m 1
 294 118 l 1
 353 118 l 1
 353 59 l 1
 294 59 l 1
59 0 m 1
 59 59 l 1
 118 59 l 1
 118 0 l 1
 59 0 l 1
294 0 m 1
 294 59 l 1
 353 59 l 1
 353 0 l 1
 294 0 l 1
EndSplineSet
EndChar

StartChar: L
Encoding: 76 76 44
Width: 412
Flags: HW
LayerCount: 2
Back
Fore
SplineSet
59 588 m 1
 59 647 l 1
 118 647 l 1
 118 588 l 1
 59 588 l 1
59 529 m 1
 59 588 l 1
 118 588 l 1
 118 529 l 1
 59 529 l 1
59 471 m 1
 59 529 l 1
 118 529 l 1
 118 471 l 1
 59 471 l 1
59 412 m 1
 59 471 l 1
 118 471 l 1
 118 412 l 1
 59 412 l 1
59 353 m 1
 59 412 l 1
 118 412 l 1
 118 353 l 1
 59 353 l 1
59 294 m 1
 59 353 l 1
 118 353 l 1
 118 294 l 1
 59 294 l 1
59 235 m 1
 59 294 l 1
 118 294 l 1
 118 235 l 1
 59 235 l 1
59 176 m 1
 59 235 l 1
 118 235 l 1
 118 176 l 1
 59 176 l 1
59 118 m 1
 59 176 l 1
 118 176 l 1
 118 118 l 1
 59 118 l 1
59 59 m 1
 59 118 l 1
 118 118 l 1
 118 59 l 1
 59 59 l 1
59 0 m 1
 59 59 l 1
 353 59 l 1
 353 0 l 1
 59 0 l 1
EndSplineSet
EndChar

StartChar: M
Encoding: 77 77 45
Width: 412
Flags: HW
LayerCount: 2
Back
Fore
SplineSet
59 588 m 1
 59 647 l 1
 118 647 l 1
 118 588 l 1
 59 588 l 1
294 588 m 1
 294 647 l 1
 353 647 l 1
 353 588 l 1
 294 588 l 1
59 529 m 1
 59 588 l 1
 118 588 l 1
 118 529 l 1
 59 529 l 1
294 529 m 1
 294 588 l 1
 353 588 l 1
 353 529 l 1
 294 529 l 1
59 471 m 1
 59 529 l 1
 176 529 l 1
 176 471 l 1
 59 471 l 1
235 471 m 1
 235 529 l 1
 353 529 l 1
 353 471 l 1
 235 471 l 1
59 412 m 1
 59 471 l 1
 176 471 l 1
 176 412 l 1
 59 412 l 1
235 412 m 1
 235 471 l 1
 353 471 l 1
 353 412 l 1
 235 412 l 1
59 353 m 1
 59 412 l 1
 118 412 l 1
 118 353 l 1
 59 353 l 1
176 353 m 1
 176 412 l 1
 235 412 l 1
 235 353 l 1
 176 353 l 1
294 353 m 1
 294 412 l 1
 353 412 l 1
 353 353 l 1
 294 353 l 1
59 294 m 1
 59 353 l 1
 118 353 l 1
 118 294 l 1
 59 294 l 1
176 294 m 1
 176 353 l 1
 235 353 l 1
 235 294 l 1
 176 294 l 1
294 294 m 1
 294 353 l 1
 353 353 l 1
 353 294 l 1
 294 294 l 1
59 235 m 1
 59 294 l 1
 118 294 l 1
 118 235 l 1
 59 235 l 1
176 235 m 1
 176 294 l 1
 235 294 l 1
 235 235 l 1
 176 235 l 1
294 235 m 1
 294 294 l 1
 353 294 l 1
 353 235 l 1
 294 235 l 1
59 176 m 1
 59 235 l 1
 118 235 l 1
 118 176 l 1
 59 176 l 1
294 176 m 1
 294 235 l 1
 353 235 l 1
 353 176 l 1
 294 176 l 1
59 118 m 1
 59 176 l 1
 118 176 l 1
 118 118 l 1
 59 118 l 1
294 118 m 1
 294 176 l 1
 353 176 l 1
 353 118 l 1
 294 118 l 1
59 59 m 1
 59 118 l 1
 118 118 l 1
 118 59 l 1
 59 59 l 1
294 59 m 1
 294 118 l 1
 353 118 l 1
 353 59 l 1
 294 59 l 1
59 0 m 1
 59 59 l 1
 118 59 l 1
 118 0 l 1
 59 0 l 1
294 0 m 1
 294 59 l 1
 353 59 l 1
 353 0 l 1
 294 0 l 1
EndSplineSet
EndChar

StartChar: N
Encoding: 78 78 46
Width: 412
Flags: HW
LayerCount: 2
Back
Fore
SplineSet
59 588 m 1
 59 647 l 1
 118 647 l 1
 118 588 l 1
 59 588 l 1
294 588 m 1
 294 647 l 1
 353 647 l 1
 353 588 l 1
 294 588 l 1
59 529 m 1
 59 588 l 1
 118 588 l 1
 118 529 l 1
 59 529 l 1
294 529 m 1
 294 588 l 1
 353 588 l 1
 353 529 l 1
 294 529 l 1
59 471 m 1
 59 529 l 1
 176 529 l 1
 176 471 l 1
 59 471 l 1
294 471 m 1
 294 529 l 1
 353 529 l 1
 353 471 l 1
 294 471 l 1
59 412 m 1
 59 471 l 1
 176 471 l 1
 176 412 l 1
 59 412 l 1
294 412 m 1
 294 471 l 1
 353 471 l 1
 353 412 l 1
 294 412 l 1
59 353 m 1
 59 412 l 1
 118 412 l 1
 118 353 l 1
 59 353 l 1
176 353 m 1
 176 412 l 1
 235 412 l 1
 235 353 l 1
 176 353 l 1
294 353 m 1
 294 412 l 1
 353 412 l 1
 353 353 l 1
 294 353 l 1
59 294 m 1
 59 353 l 1
 118 353 l 1
 118 294 l 1
 59 294 l 1
176 294 m 1
 176 353 l 1
 235 353 l 1
 235 294 l 1
 176 294 l 1
294 294 m 1
 294 353 l 1
 353 353 l 1
 353 294 l 1
 294 294 l 1
59 235 m 1
 59 294 l 1
 118 294 l 1
 118 235 l 1
 59 235 l 1
235 235 m 1
 235 294 l 1
 353 294 l 1
 353 235 l 1
 235 235 l 1
59 176 m 1
 59 235 l 1
 118 235 l 1
 118 176 l 1
 59 176 l 1
235 176 m 1
 235 235 l 1
 353 235 l 1
 353 176 l 1
 235 176 l 1
59 118 m 1
 59 176 l 1
 118 176 l 1
 118 118 l 1
 59 118 l 1
294 118 m 1
 294 176 l 1
 353 176 l 1
 353 118 l 1
 294 118 l 1
59 59 m 1
 59 118 l 1
 118 118 l 1
 118 59 l 1
 59 59 l 1
294 59 m 1
 294 118 l 1
 353 118 l 1
 353 59 l 1
 294 59 l 1
59 0 m 1
 59 59 l 1
 118 59 l 1
 118 0 l 1
 59 0 l 1
294 0 m 1
 294 59 l 1
 353 59 l 1
 353 0 l 1
 294 0 l 1
EndSplineSet
EndChar

StartChar: O
Encoding: 79 79 47
Width: 412
Flags: HW
LayerCount: 2
Back
Fore
SplineSet
118 588 m 1
 118 647 l 1
 294 647 l 1
 294 588 l 1
 118 588 l 1
59 529 m 1
 59 588 l 1
 118 588 l 1
 118 529 l 1
 59 529 l 1
294 529 m 1
 294 588 l 1
 353 588 l 1
 353 529 l 1
 294 529 l 1
59 471 m 1
 59 529 l 1
 118 529 l 1
 118 471 l 1
 59 471 l 1
294 471 m 1
 294 529 l 1
 353 529 l 1
 353 471 l 1
 294 471 l 1
59 412 m 1
 59 471 l 1
 118 471 l 1
 118 412 l 1
 59 412 l 1
294 412 m 1
 294 471 l 1
 353 471 l 1
 353 412 l 1
 294 412 l 1
59 353 m 1
 59 412 l 1
 118 412 l 1
 118 353 l 1
 59 353 l 1
294 353 m 1
 294 412 l 1
 353 412 l 1
 353 353 l 1
 294 353 l 1
59 294 m 1
 59 353 l 1
 118 353 l 1
 118 294 l 1
 59 294 l 1
294 294 m 1
 294 353 l 1
 353 353 l 1
 353 294 l 1
 294 294 l 1
59 235 m 1
 59 294 l 1
 118 294 l 1
 118 235 l 1
 59 235 l 1
294 235 m 1
 294 294 l 1
 353 294 l 1
 353 235 l 1
 294 235 l 1
59 176 m 1
 59 235 l 1
 118 235 l 1
 118 176 l 1
 59 176 l 1
294 176 m 1
 294 235 l 1
 353 235 l 1
 353 176 l 1
 294 176 l 1
59 118 m 1
 59 176 l 1
 118 176 l 1
 118 118 l 1
 59 118 l 1
294 118 m 1
 294 176 l 1
 353 176 l 1
 353 118 l 1
 294 118 l 1
59 59 m 1
 59 118 l 1
 118 118 l 1
 118 59 l 1
 59 59 l 1
294 59 m 1
 294 118 l 1
 353 118 l 1
 353 59 l 1
 294 59 l 1
118 0 m 1
 118 59 l 1
 294 59 l 1
 294 0 l 1
 118 0 l 1
EndSplineSet
EndChar

StartChar: P
Encoding: 80 80 48
Width: 412
Flags: HW
LayerCount: 2
Back
Fore
SplineSet
59 588 m 1
 59 647 l 1
 294 647 l 1
 294 588 l 1
 59 588 l 1
59 529 m 1
 59 588 l 1
 118 588 l 1
 118 529 l 1
 59 529 l 1
294 529 m 1
 294 588 l 1
 353 588 l 1
 353 529 l 1
 294 529 l 1
59 471 m 1
 59 529 l 1
 118 529 l 1
 118 471 l 1
 59 471 l 1
294 471 m 1
 294 529 l 1
 353 529 l 1
 353 471 l 1
 294 471 l 1
59 412 m 1
 59 471 l 1
 118 471 l 1
 118 412 l 1
 59 412 l 1
294 412 m 1
 294 471 l 1
 353 471 l 1
 353 412 l 1
 294 412 l 1
59 353 m 1
 59 412 l 1
 118 412 l 1
 118 353 l 1
 59 353 l 1
294 353 m 1
 294 412 l 1
 353 412 l 1
 353 353 l 1
 294 353 l 1
59 294 m 1
 59 353 l 1
 294 353 l 1
 294 294 l 1
 59 294 l 1
59 235 m 1
 59 294 l 1
 118 294 l 1
 118 235 l 1
 59 235 l 1
59 176 m 1
 59 235 l 1
 118 235 l 1
 118 176 l 1
 59 176 l 1
59 118 m 1
 59 176 l 1
 118 176 l 1
 118 118 l 1
 59 118 l 1
59 59 m 1
 59 118 l 1
 118 118 l 1
 118 59 l 1
 59 59 l 1
59 0 m 1
 59 59 l 1
 118 59 l 1
 118 0 l 1
 59 0 l 1
EndSplineSet
EndChar

StartChar: Q
Encoding: 81 81 49
Width: 412
Flags: HW
LayerCount: 2
Back
Fore
SplineSet
118 588 m 1
 118 647 l 1
 294 647 l 1
 294 588 l 1
 118 588 l 1
59 529 m 1
 59 588 l 1
 118 588 l 1
 118 529 l 1
 59 529 l 1
294 529 m 1
 294 588 l 1
 353 588 l 1
 353 529 l 1
 294 529 l 1
59 471 m 1
 59 529 l 1
 118 529 l 1
 118 471 l 1
 59 471 l 1
294 471 m 1
 294 529 l 1
 353 529 l 1
 353 471 l 1
 294 471 l 1
59 412 m 1
 59 471 l 1
 118 471 l 1
 118 412 l 1
 59 412 l 1
294 412 m 1
 294 471 l 1
 353 471 l 1
 353 412 l 1
 294 412 l 1
59 353 m 1
 59 412 l 1
 118 412 l 1
 118 353 l 1
 59 353 l 1
294 353 m 1
 294 412 l 1
 353 412 l 1
 353 353 l 1
 294 353 l 1
59 294 m 1
 59 353 l 1
 118 353 l 1
 118 294 l 1
 59 294 l 1
294 294 m 1
 294 353 l 1
 353 353 l 1
 353 294 l 1
 294 294 l 1
59 235 m 1
 59 294 l 1
 118 294 l 1
 118 235 l 1
 59 235 l 1
176 235 m 1
 176 294 l 1
 235 294 l 1
 235 235 l 1
 176 235 l 1
294 235 m 1
 294 294 l 1
 353 294 l 1
 353 235 l 1
 294 235 l 1
59 176 m 1
 59 235 l 1
 118 235 l 1
 118 176 l 1
 59 176 l 1
176 176 m 1
 176 235 l 1
 235 235 l 1
 235 176 l 1
 176 176 l 1
294 176 m 1
 294 235 l 1
 353 235 l 1
 353 176 l 1
 294 176 l 1
59 118 m 1
 59 176 l 1
 118 176 l 1
 118 118 l 1
 59 118 l 1
235 118 m 1
 235 176 l 1
 294 176 l 1
 294 118 l 1
 235 118 l 1
59 59 m 1
 59 118 l 1
 118 118 l 1
 118 59 l 1
 59 59 l 1
235 59 m 1
 235 118 l 1
 294 118 l 1
 294 59 l 1
 235 59 l 1
118 0 m 1
 118 59 l 1
 235 59 l 1
 235 0 l 1
 118 0 l 1
294 0 m 1
 294 59 l 1
 353 59 l 1
 353 0 l 1
 294 0 l 1
EndSplineSet
EndChar

StartChar: R
Encoding: 82 82 50
Width: 412
Flags: HW
LayerCount: 2
Back
Fore
SplineSet
59 588 m 1
 59 647 l 1
 294 647 l 1
 294 588 l 1
 59 588 l 1
59 529 m 1
 59 588 l 1
 118 588 l 1
 118 529 l 1
 59 529 l 1
294 529 m 1
 294 588 l 1
 353 588 l 1
 353 529 l 1
 294 529 l 1
59 471 m 1
 59 529 l 1
 118 529 l 1
 118 471 l 1
 59 471 l 1
294 471 m 1
 294 529 l 1
 353 529 l 1
 353 471 l 1
 294 471 l 1
59 412 m 1
 59 471 l 1
 118 471 l 1
 118 412 l 1
 59 412 l 1
294 412 m 1
 294 471 l 1
 353 471 l 1
 353 412 l 1
 294 412 l 1
59 353 m 1
 59 412 l 1
 118 412 l 1
 118 353 l 1
 59 353 l 1
294 353 m 1
 294 412 l 1
 353 412 l 1
 353 353 l 1
 294 353 l 1
59 294 m 1
 59 353 l 1
 294 353 l 1
 294 294 l 1
 59 294 l 1
59 235 m 1
 59 294 l 1
 118 294 l 1
 118 235 l 1
 59 235 l 1
176 235 m 1
 176 294 l 1
 235 294 l 1
 235 235 l 1
 176 235 l 1
59 176 m 1
 59 235 l 1
 118 235 l 1
 118 176 l 1
 59 176 l 1
235 176 m 1
 235 235 l 1
 294 235 l 1
 294 176 l 1
 235 176 l 1
59 118 m 1
 59 176 l 1
 118 176 l 1
 118 118 l 1
 59 118 l 1
235 118 m 1
 235 176 l 1
 294 176 l 1
 294 118 l 1
 235 118 l 1
59 59 m 1
 59 118 l 1
 118 118 l 1
 118 59 l 1
 59 59 l 1
294 59 m 1
 294 118 l 1
 353 118 l 1
 353 59 l 1
 294 59 l 1
59 0 m 1
 59 59 l 1
 118 59 l 1
 118 0 l 1
 59 0 l 1
294 0 m 1
 294 59 l 1
 353 59 l 1
 353 0 l 1
 294 0 l 1
EndSplineSet
EndChar

StartChar: S
Encoding: 83 83 51
Width: 412
Flags: HW
LayerCount: 2
Back
Fore
SplineSet
118 588 m 1
 118 647 l 1
 294 647 l 1
 294 588 l 1
 118 588 l 1
59 529 m 1
 59 588 l 1
 118 588 l 1
 118 529 l 1
 59 529 l 1
294 529 m 1
 294 588 l 1
 353 588 l 1
 353 529 l 1
 294 529 l 1
59 471 m 1
 59 529 l 1
 118 529 l 1
 118 471 l 1
 59 471 l 1
59 412 m 1
 59 471 l 1
 118 471 l 1
 118 412 l 1
 59 412 l 1
59 353 m 1
 59 412 l 1
 118 412 l 1
 118 353 l 1
 59 353 l 1
118 294 m 1
 118 353 l 1
 294 353 l 1
 294 294 l 1
 118 294 l 1
294 235 m 1
 294 294 l 1
 353 294 l 1
 353 235 l 1
 294 235 l 1
294 176 m 1
 294 235 l 1
 353 235 l 1
 353 176 l 1
 294 176 l 1
294 118 m 1
 294 176 l 1
 353 176 l 1
 353 118 l 1
 294 118 l 1
59 59 m 1
 59 118 l 1
 118 118 l 1
 118 59 l 1
 59 59 l 1
294 59 m 1
 294 118 l 1
 353 118 l 1
 353 59 l 1
 294 59 l 1
118 0 m 1
 118 59 l 1
 294 59 l 1
 294 0 l 1
 118 0 l 1
EndSplineSet
EndChar

StartChar: T
Encoding: 84 84 52
Width: 412
Flags: HW
LayerCount: 2
Back
Fore
SplineSet
59 588 m 1
 59 647 l 1
 353 647 l 1
 353 588 l 1
 59 588 l 1
176 529 m 1
 176 588 l 1
 235 588 l 1
 235 529 l 1
 176 529 l 1
176 471 m 1
 176 529 l 1
 235 529 l 1
 235 471 l 1
 176 471 l 1
176 412 m 1
 176 471 l 1
 235 471 l 1
 235 412 l 1
 176 412 l 1
176 353 m 1
 176 412 l 1
 235 412 l 1
 235 353 l 1
 176 353 l 1
176 294 m 1
 176 353 l 1
 235 353 l 1
 235 294 l 1
 176 294 l 1
176 235 m 1
 176 294 l 1
 235 294 l 1
 235 235 l 1
 176 235 l 1
176 176 m 1
 176 235 l 1
 235 235 l 1
 235 176 l 1
 176 176 l 1
176 118 m 1
 176 176 l 1
 235 176 l 1
 235 118 l 1
 176 118 l 1
176 59 m 1
 176 118 l 1
 235 118 l 1
 235 59 l 1
 176 59 l 1
176 0 m 1
 176 59 l 1
 235 59 l 1
 235 0 l 1
 176 0 l 1
EndSplineSet
EndChar

StartChar: U
Encoding: 85 85 53
Width: 412
Flags: HW
LayerCount: 2
Back
Fore
SplineSet
59 588 m 1
 59 647 l 1
 118 647 l 1
 118 588 l 1
 59 588 l 1
294 588 m 1
 294 647 l 1
 353 647 l 1
 353 588 l 1
 294 588 l 1
59 529 m 1
 59 588 l 1
 118 588 l 1
 118 529 l 1
 59 529 l 1
294 529 m 1
 294 588 l 1
 353 588 l 1
 353 529 l 1
 294 529 l 1
59 471 m 1
 59 529 l 1
 118 529 l 1
 118 471 l 1
 59 471 l 1
294 471 m 1
 294 529 l 1
 353 529 l 1
 353 471 l 1
 294 471 l 1
59 412 m 1
 59 471 l 1
 118 471 l 1
 118 412 l 1
 59 412 l 1
294 412 m 1
 294 471 l 1
 353 471 l 1
 353 412 l 1
 294 412 l 1
59 353 m 1
 59 412 l 1
 118 412 l 1
 118 353 l 1
 59 353 l 1
294 353 m 1
 294 412 l 1
 353 412 l 1
 353 353 l 1
 294 353 l 1
59 294 m 1
 59 353 l 1
 118 353 l 1
 118 294 l 1
 59 294 l 1
294 294 m 1
 294 353 l 1
 353 353 l 1
 353 294 l 1
 294 294 l 1
59 235 m 1
 59 294 l 1
 118 294 l 1
 118 235 l 1
 59 235 l 1
294 235 m 1
 294 294 l 1
 353 294 l 1
 353 235 l 1
 294 235 l 1
59 176 m 1
 59 235 l 1
 118 235 l 1
 118 176 l 1
 59 176 l 1
294 176 m 1
 294 235 l 1
 353 235 l 1
 353 176 l 1
 294 176 l 1
59 118 m 1
 59 176 l 1
 118 176 l 1
 118 118 l 1
 59 118 l 1
294 118 m 1
 294 176 l 1
 353 176 l 1
 353 118 l 1
 294 118 l 1
59 59 m 1
 59 118 l 1
 118 118 l 1
 118 59 l 1
 59 59 l 1
294 59 m 1
 294 118 l 1
 353 118 l 1
 353 59 l 1
 294 59 l 1
118 0 m 1
 118 59 l 1
 294 59 l 1
 294 0 l 1
 118 0 l 1
EndSplineSet
EndChar

StartChar: V
Encoding: 86 86 54
Width: 412
Flags: HW
LayerCount: 2
Back
Fore
SplineSet
59 588 m 1
 59 647 l 1
 118 647 l 1
 118 588 l 1
 59 588 l 1
294 588 m 1
 294 647 l 1
 353 647 l 1
 353 588 l 1
 294 588 l 1
59 529 m 1
 59 588 l 1
 118 588 l 1
 118 529 l 1
 59 529 l 1
294 529 m 1
 294 588 l 1
 353 588 l 1
 353 529 l 1
 294 529 l 1
59 471 m 1
 59 529 l 1
 118 529 l 1
 118 471 l 1
 59 471 l 1
294 471 m 1
 294 529 l 1
 353 529 l 1
 353 471 l 1
 294 471 l 1
59 412 m 1
 59 471 l 1
 118 471 l 1
 118 412 l 1
 59 412 l 1
294 412 m 1
 294 471 l 1
 353 471 l 1
 353 412 l 1
 294 412 l 1
59 353 m 1
 59 412 l 1
 118 412 l 1
 118 353 l 1
 59 353 l 1
294 353 m 1
 294 412 l 1
 353 412 l 1
 353 353 l 1
 294 353 l 1
59 294 m 1
 59 353 l 1
 118 353 l 1
 118 294 l 1
 59 294 l 1
294 294 m 1
 294 353 l 1
 353 353 l 1
 353 294 l 1
 294 294 l 1
59 235 m 1
 59 294 l 1
 118 294 l 1
 118 235 l 1
 59 235 l 1
294 235 m 1
 294 294 l 1
 353 294 l 1
 353 235 l 1
 294 235 l 1
118 176 m 1
 118 235 l 1
 176 235 l 1
 176 176 l 1
 118 176 l 1
235 176 m 1
 235 235 l 1
 294 235 l 1
 294 176 l 1
 235 176 l 1
118 118 m 1
 118 176 l 1
 176 176 l 1
 176 118 l 1
 118 118 l 1
235 118 m 1
 235 176 l 1
 294 176 l 1
 294 118 l 1
 235 118 l 1
176 59 m 1
 176 118 l 1
 235 118 l 1
 235 59 l 1
 176 59 l 1
176 0 m 1
 176 59 l 1
 235 59 l 1
 235 0 l 1
 176 0 l 1
EndSplineSet
EndChar

StartChar: W
Encoding: 87 87 55
Width: 412
Flags: HW
LayerCount: 2
Back
Fore
SplineSet
59 588 m 1
 59 647 l 1
 118 647 l 1
 118 588 l 1
 59 588 l 1
294 588 m 1
 294 647 l 1
 353 647 l 1
 353 588 l 1
 294 588 l 1
59 529 m 1
 59 588 l 1
 118 588 l 1
 118 529 l 1
 59 529 l 1
294 529 m 1
 294 588 l 1
 353 588 l 1
 353 529 l 1
 294 529 l 1
59 471 m 1
 59 529 l 1
 118 529 l 1
 118 471 l 1
 59 471 l 1
294 471 m 1
 294 529 l 1
 353 529 l 1
 353 471 l 1
 294 471 l 1
59 412 m 1
 59 471 l 1
 118 471 l 1
 118 412 l 1
 59 412 l 1
294 412 m 1
 294 471 l 1
 353 471 l 1
 353 412 l 1
 294 412 l 1
59 353 m 1
 59 412 l 1
 118 412 l 1
 118 353 l 1
 59 353 l 1
294 353 m 1
 294 412 l 1
 353 412 l 1
 353 353 l 1
 294 353 l 1
59 294 m 1
 59 353 l 1
 118 353 l 1
 118 294 l 1
 59 294 l 1
294 294 m 1
 294 353 l 1
 353 353 l 1
 353 294 l 1
 294 294 l 1
59 235 m 1
 59 294 l 1
 118 294 l 1
 118 235 l 1
 59 235 l 1
294 235 m 1
 294 294 l 1
 353 294 l 1
 353 235 l 1
 294 235 l 1
59 176 m 1
 59 235 l 1
 118 235 l 1
 118 176 l 1
 59 176 l 1
176 176 m 1
 176 235 l 1
 235 235 l 1
 235 176 l 1
 176 176 l 1
294 176 m 1
 294 235 l 1
 353 235 l 1
 353 176 l 1
 294 176 l 1
59 118 m 1
 59 176 l 1
 118 176 l 1
 118 118 l 1
 59 118 l 1
176 118 m 1
 176 176 l 1
 235 176 l 1
 235 118 l 1
 176 118 l 1
294 118 m 1
 294 176 l 1
 353 176 l 1
 353 118 l 1
 294 118 l 1
59 59 m 1
 59 118 l 1
 176 118 l 1
 176 59 l 1
 59 59 l 1
235 59 m 1
 235 118 l 1
 353 118 l 1
 353 59 l 1
 235 59 l 1
59 0 m 1
 59 59 l 1
 118 59 l 1
 118 0 l 1
 59 0 l 1
294 0 m 1
 294 59 l 1
 353 59 l 1
 353 0 l 1
 294 0 l 1
EndSplineSet
EndChar

StartChar: X
Encoding: 88 88 56
Width: 412
Flags: HW
LayerCount: 2
Back
Fore
SplineSet
59 588 m 1
 59 647 l 1
 118 647 l 1
 118 588 l 1
 59 588 l 1
294 588 m 1
 294 647 l 1
 353 647 l 1
 353 588 l 1
 294 588 l 1
59 529 m 1
 59 588 l 1
 118 588 l 1
 118 529 l 1
 59 529 l 1
294 529 m 1
 294 588 l 1
 353 588 l 1
 353 529 l 1
 294 529 l 1
59 471 m 1
 59 529 l 1
 118 529 l 1
 118 471 l 1
 59 471 l 1
294 471 m 1
 294 529 l 1
 353 529 l 1
 353 471 l 1
 294 471 l 1
118 412 m 1
 118 471 l 1
 176 471 l 1
 176 412 l 1
 118 412 l 1
235 412 m 1
 235 471 l 1
 294 471 l 1
 294 412 l 1
 235 412 l 1
118 353 m 1
 118 412 l 1
 176 412 l 1
 176 353 l 1
 118 353 l 1
235 353 m 1
 235 412 l 1
 294 412 l 1
 294 353 l 1
 235 353 l 1
176 294 m 1
 176 353 l 1
 235 353 l 1
 235 294 l 1
 176 294 l 1
118 235 m 1
 118 294 l 1
 176 294 l 1
 176 235 l 1
 118 235 l 1
235 235 m 1
 235 294 l 1
 294 294 l 1
 294 235 l 1
 235 235 l 1
118 176 m 1
 118 235 l 1
 176 235 l 1
 176 176 l 1
 118 176 l 1
235 176 m 1
 235 235 l 1
 294 235 l 1
 294 176 l 1
 235 176 l 1
59 118 m 1
 59 176 l 1
 118 176 l 1
 118 118 l 1
 59 118 l 1
294 118 m 1
 294 176 l 1
 353 176 l 1
 353 118 l 1
 294 118 l 1
59 59 m 1
 59 118 l 1
 118 118 l 1
 118 59 l 1
 59 59 l 1
294 59 m 1
 294 118 l 1
 353 118 l 1
 353 59 l 1
 294 59 l 1
59 0 m 1
 59 59 l 1
 118 59 l 1
 118 0 l 1
 59 0 l 1
294 0 m 1
 294 59 l 1
 353 59 l 1
 353 0 l 1
 294 0 l 1
EndSplineSet
EndChar

StartChar: Y
Encoding: 89 89 57
Width: 412
Flags: HW
LayerCount: 2
Back
Fore
SplineSet
59 588 m 1
 59 647 l 1
 118 647 l 1
 118 588 l 1
 59 588 l 1
294 588 m 1
 294 647 l 1
 353 647 l 1
 353 588 l 1
 294 588 l 1
59 529 m 1
 59 588 l 1
 118 588 l 1
 118 529 l 1
 59 529 l 1
294 529 m 1
 294 588 l 1
 353 588 l 1
 353 529 l 1
 294 529 l 1
59 471 m 1
 59 529 l 1
 118 529 l 1
 118 471 l 1
 59 471 l 1
294 471 m 1
 294 529 l 1
 353 529 l 1
 353 471 l 1
 294 471 l 1
118 412 m 1
 118 471 l 1
 176 471 l 1
 176 412 l 1
 118 412 l 1
235 412 m 1
 235 471 l 1
 294 471 l 1
 294 412 l 1
 235 412 l 1
118 353 m 1
 118 412 l 1
 176 412 l 1
 176 353 l 1
 118 353 l 1
235 353 m 1
 235 412 l 1
 294 412 l 1
 294 353 l 1
 235 353 l 1
176 294 m 1
 176 353 l 1
 235 353 l 1
 235 294 l 1
 176 294 l 1
176 235 m 1
 176 294 l 1
 235 294 l 1
 235 235 l 1
 176 235 l 1
176 176 m 1
 176 235 l 1
 235 235 l 1
 235 176 l 1
 176 176 l 1
176 118 m 1
 176 176 l 1
 235 176 l 1
 235 118 l 1
 176 118 l 1
176 59 m 1
 176 118 l 1
 235 118 l 1
 235 59 l 1
 176 59 l 1
176 0 m 1
 176 59 l 1
 235 59 l 1
 235 0 l 1
 176 0 l 1
EndSplineSet
EndChar

StartChar: Z
Encoding: 90 90 58
Width: 412
Flags: HW
LayerCount: 2
Back
Fore
SplineSet
59 588 m 1
 59 647 l 1
 353 647 l 1
 353 588 l 1
 59 588 l 1
294 529 m 1
 294 588 l 1
 353 588 l 1
 353 529 l 1
 294 529 l 1
235 471 m 1
 235 529 l 1
 294 529 l 1
 294 471 l 1
 235 471 l 1
235 412 m 1
 235 471 l 1
 294 471 l 1
 294 412 l 1
 235 412 l 1
176 353 m 1
 176 412 l 1
 235 412 l 1
 235 353 l 1
 176 353 l 1
176 294 m 1
 176 353 l 1
 235 353 l 1
 235 294 l 1
 176 294 l 1
176 235 m 1
 176 294 l 1
 235 294 l 1
 235 235 l 1
 176 235 l 1
118 176 m 1
 118 235 l 1
 176 235 l 1
 176 176 l 1
 118 176 l 1
118 118 m 1
 118 176 l 1
 176 176 l 1
 176 118 l 1
 118 118 l 1
59 59 m 1
 59 118 l 1
 118 118 l 1
 118 59 l 1
 59 59 l 1
59 0 m 1
 59 59 l 1
 353 59 l 1
 353 0 l 1
 59 0 l 1
EndSplineSet
EndChar

StartChar: bracketleft
Encoding: 91 91 59
Width: 412
Flags: HW
LayerCount: 2
Back
Fore
SplineSet
59 529 m 1
 59 588 l 1
 353 588 l 1
 353 529 l 1
 59 529 l 1
59 471 m 1
 59 529 l 1
 176 529 l 1
 176 471 l 1
 59 471 l 1
59 412 m 1
 59 471 l 1
 176 471 l 1
 176 412 l 1
 59 412 l 1
59 353 m 1
 59 412 l 1
 176 412 l 1
 176 353 l 1
 59 353 l 1
59 294 m 1
 59 353 l 1
 176 353 l 1
 176 294 l 1
 59 294 l 1
59 235 m 1
 59 294 l 1
 176 294 l 1
 176 235 l 1
 59 235 l 1
59 176 m 1
 59 235 l 1
 176 235 l 1
 176 176 l 1
 59 176 l 1
59 118 m 1
 59 176 l 1
 176 176 l 1
 176 118 l 1
 59 118 l 1
59 59 m 1
 59 118 l 1
 176 118 l 1
 176 59 l 1
 59 59 l 1
59 0 m 1
 59 59 l 1
 353 59 l 1
 353 0 l 1
 59 0 l 1
EndSplineSet
EndChar

StartChar: backslash
Encoding: 92 92 60
Width: 412
Flags: HW
LayerCount: 2
Back
Fore
SplineSet
59 471 m 1
 59 529 l 1
 118 529 l 1
 118 471 l 1
 59 471 l 1
118 412 m 1
 118 471 l 1
 176 471 l 1
 176 412 l 1
 118 412 l 1
118 353 m 1
 118 412 l 1
 176 412 l 1
 176 353 l 1
 118 353 l 1
176 294 m 1
 176 353 l 1
 235 353 l 1
 235 294 l 1
 176 294 l 1
235 235 m 1
 235 294 l 1
 294 294 l 1
 294 235 l 1
 235 235 l 1
235 176 m 1
 235 235 l 1
 294 235 l 1
 294 176 l 1
 235 176 l 1
294 118 m 1
 294 176 l 1
 353 176 l 1
 353 118 l 1
 294 118 l 1
EndSplineSet
EndChar

StartChar: bracketright
Encoding: 93 93 61
Width: 412
Flags: HW
LayerCount: 2
Back
Fore
SplineSet
59 529 m 1
 59 588 l 1
 353 588 l 1
 353 529 l 1
 59 529 l 1
235 471 m 1
 235 529 l 1
 353 529 l 1
 353 471 l 1
 235 471 l 1
235 412 m 1
 235 471 l 1
 353 471 l 1
 353 412 l 1
 235 412 l 1
235 353 m 1
 235 412 l 1
 353 412 l 1
 353 353 l 1
 235 353 l 1
235 294 m 1
 235 353 l 1
 353 353 l 1
 353 294 l 1
 235 294 l 1
235 235 m 1
 235 294 l 1
 353 294 l 1
 353 235 l 1
 235 235 l 1
235 176 m 1
 235 235 l 1
 353 235 l 1
 353 176 l 1
 235 176 l 1
235 118 m 1
 235 176 l 1
 353 176 l 1
 353 118 l 1
 235 118 l 1
235 59 m 1
 235 118 l 1
 353 118 l 1
 353 59 l 1
 235 59 l 1
59 0 m 1
 59 59 l 1
 353 59 l 1
 353 0 l 1
 59 0 l 1
EndSplineSet
EndChar

StartChar: asciicircum
Encoding: 94 94 62
Width: 412
Flags: HW
LayerCount: 2
Back
Fore
SplineSet
176 588 m 1
 176 647 l 1
 235 647 l 1
 235 588 l 1
 176 588 l 1
118 529 m 1
 118 588 l 1
 176 588 l 1
 176 529 l 1
 118 529 l 1
235 529 m 1
 235 588 l 1
 294 588 l 1
 294 529 l 1
 235 529 l 1
118 471 m 1
 118 529 l 1
 176 529 l 1
 176 471 l 1
 118 471 l 1
235 471 m 1
 235 529 l 1
 294 529 l 1
 294 471 l 1
 235 471 l 1
59 412 m 1
 59 471 l 1
 118 471 l 1
 118 412 l 1
 59 412 l 1
294 412 m 1
 294 471 l 1
 353 471 l 1
 353 412 l 1
 294 412 l 1
59 353 m 1
 59 412 l 1
 118 412 l 1
 118 353 l 1
 59 353 l 1
294 353 m 1
 294 412 l 1
 353 412 l 1
 353 353 l 1
 294 353 l 1
EndSplineSet
EndChar

StartChar: underscore
Encoding: 95 95 63
Width: 412
Flags: HW
LayerCount: 2
Back
Fore
SplineSet
59 -118 m 1
 59 -59 l 1
 353 -59 l 1
 353 -118 l 1
 59 -118 l 1
EndSplineSet
EndChar

StartChar: grave
Encoding: 96 96 64
Width: 412
Flags: HW
LayerCount: 2
Back
Fore
SplineSet
59 588 m 1
 59 647 l 1
 118 647 l 1
 118 588 l 1
 59 588 l 1
118 529 m 1
 118 588 l 1
 176 588 l 1
 176 529 l 1
 118 529 l 1
176 471 m 1
 176 529 l 1
 235 529 l 1
 235 471 l 1
 176 471 l 1
235 412 m 1
 235 471 l 1
 294 471 l 1
 294 412 l 1
 235 412 l 1
294 353 m 1
 294 412 l 1
 353 412 l 1
 353 353 l 1
 294 353 l 1
EndSplineSet
EndChar
